<svg width="25" height="22" viewBox="0 0 25 22" fill="none" xmlns="http://www.w3.org/2000/svg">
<path fill-rule="evenodd" clip-rule="evenodd" d="M2.10939 0H22.8908C24.0511 0 25 0.949104 25 2.10919C25 3.26927 24.0511 4.21858 22.8908 4.21858H2.10939C0.949308 4.21858 0 3.26948 0 2.10939C0 0.949104 0.949308 0 2.10939 0ZM2.10939 16.8611H22.8908C24.0511 16.8611 25 17.8102 25 18.9703C25 20.1304 24.0511 21.0795 22.8908 21.0795H2.10939C0.949308 21.0795 0 20.1304 0 18.9703C0 17.8102 0.949308 16.8611 2.10939 16.8611ZM2.10939 8.43065H22.8908C24.0511 8.43065 25 9.37976 25 10.5398C25 11.6999 24.0511 12.6492 22.8908 12.6492H2.10939C0.949308 12.6492 0 11.6999 0 10.5398C0 9.37976 0.949308 8.43065 2.10939 8.43065Z" fill="black"/>
</svg>
