<svg width="296" height="52" viewBox="0 0 296 52" fill="none" xmlns="http://www.w3.org/2000/svg">
<circle cx="25.725" cy="25.725" r="25.725" fill="white"/>
<path d="M23.6971 13.4148C26.3315 13.0444 29.0669 13.476 31.4624 14.6363C31.8512 14.8399 32.2967 14.9914 32.586 15.3374C32.8048 15.6175 32.6518 16.0124 32.4298 16.242C32.1375 16.5007 31.7594 16.291 31.464 16.1563C29.523 15.1552 27.3494 14.5291 25.1528 14.621C23.3864 14.6899 21.6521 15.2134 20.1046 16.0598C19.8566 16.1869 19.6071 16.3323 19.3285 16.3798C18.7361 16.343 18.4621 15.4414 19.0162 15.143C20.4276 14.2429 22.0425 13.6643 23.6971 13.4148Z" fill="#1D1C1B"/>
<path d="M24.8745 16.3906C25.1515 16.2681 25.4699 16.3309 25.7654 16.3156C28.1992 16.334 30.6544 17.0595 32.6076 18.5351C33.6209 19.2943 34.5118 20.2189 35.2496 21.2475C35.542 21.6241 35.2726 22.2471 34.8011 22.2945C34.3695 22.3818 34.1353 21.9593 33.9087 21.6777C31.8958 19.0632 28.5926 17.4896 25.2878 17.6703C24.5592 17.8157 24.2102 16.6983 24.8745 16.3906Z" fill="#1D1C1B"/>
<path d="M22.3075 16.7534C22.8203 16.4687 23.4433 17.0151 23.2474 17.5616C23.0974 18.0438 22.5173 18.0376 22.1254 18.1999C20.0161 18.8612 18.317 20.4332 17.1001 22.2364C16.8904 22.5333 16.6715 22.8976 16.275 22.9527C15.7699 22.9298 15.3551 22.3282 15.6719 21.8766C16.5582 20.6888 17.5011 19.5071 18.715 18.6346C19.8156 17.8448 21.0156 17.1728 22.3075 16.7534Z" fill="#1D1C1B"/>
<path d="M16.9421 16.8557C17.3569 16.5067 18.0564 16.8879 17.9983 17.4236C18.0228 17.892 17.4549 18.2625 17.0431 18.0176C16.6038 17.8155 16.5487 17.1343 16.9421 16.8557Z" fill="#1D1C1B"/>
<path d="M24.4613 19.2253C26.8783 18.8365 29.4438 19.4733 31.3801 20.9795C33.3118 22.449 34.5502 24.7894 34.6405 27.2202C34.6772 28.4509 34.6191 29.7596 33.993 30.8541C33.4986 31.748 32.4256 32.2394 31.4245 32.1169C30.8306 32.0189 30.702 31.1219 31.2347 30.8525C31.6403 30.701 32.1148 30.8005 32.4945 30.5602C33.1879 30.1698 33.4205 29.3234 33.4772 28.5825C33.5935 26.7242 33.1205 24.7848 31.9587 23.3077C31.0051 22.0801 29.6121 21.2321 28.1166 20.8433C26.0226 20.2922 23.6791 20.43 21.7902 21.552C19.661 22.7796 18.2849 25.0925 17.9864 27.508C17.7736 28.9973 17.9864 30.5112 18.3859 31.9501C18.49 32.2531 18.4854 32.6373 18.1992 32.8409C17.8456 33.1471 17.2394 32.9297 17.1568 32.472C16.4373 29.9632 16.3378 27.1911 17.3343 24.7404C18.4931 21.7908 21.3785 19.7335 24.4613 19.2253Z" fill="#1D1C1B"/>
<path d="M26.1174 22.2272C26.4787 21.9516 27.0558 22.2011 27.1292 22.642C27.2777 23.144 26.7114 23.6645 26.2277 23.4303C25.7409 23.242 25.6797 22.5011 26.1174 22.2272Z" fill="#1D1C1B"/>
<path d="M28.5711 23.1302C28.8038 22.9633 29.1359 22.9802 29.3548 23.1639C30.7661 24.2476 31.6769 25.9222 31.9325 27.6733C31.9785 28.0774 32.0397 28.506 31.8989 28.8979C31.6187 29.4122 30.6911 29.2316 30.711 28.6055C30.5824 26.9539 29.8003 25.3696 28.5573 24.2736C28.1701 24.0088 28.1731 23.3812 28.5711 23.1302Z" fill="#1D1C1B"/>
<path d="M35.7687 23.3047C36.1774 23.0123 36.7943 23.3629 36.7805 23.8573C36.8417 24.3823 36.1697 24.7788 35.7488 24.4512C35.3524 24.1986 35.3661 23.542 35.7687 23.3047Z" fill="#1D1C1B"/>
<path d="M14.6248 24.0378C14.934 23.8526 15.3641 24.0087 15.5157 24.3271C15.6902 24.6256 15.505 24.9486 15.4284 25.244C15.159 26.0338 15.0626 26.8665 14.9983 27.6946C14.9692 28.085 14.5131 28.3666 14.1488 28.2212C13.8656 28.1278 13.6696 27.8309 13.7018 27.5324C13.7385 26.5604 13.9222 25.5945 14.2146 24.6669C14.2957 24.4296 14.3784 24.1541 14.6248 24.0378Z" fill="#1D1C1B"/>
<path d="M24.6052 25.1797C24.9711 25.0848 25.3706 24.9471 25.7441 25.0665C26.2247 25.2456 26.2905 25.9772 25.8604 26.2482C25.4838 26.4242 25.0369 26.3813 24.671 26.5926C23.9317 26.9615 23.5215 27.7973 23.5199 28.6039C23.5414 30.5586 24.2103 32.5577 25.6017 33.966C26.5201 34.9028 27.6636 35.6299 28.9203 36.0202C29.2831 36.1136 29.6367 36.4519 29.4974 36.8575C29.4438 37.2478 29.0182 37.4269 28.6677 37.3213C26.8431 36.9754 25.3002 35.7539 24.1797 34.3181C22.8449 32.5776 21.9831 30.3627 22.2265 28.1447C22.3536 26.8054 23.3133 25.5793 24.6052 25.1797Z" fill="#1D1C1B"/>
<path d="M36.8386 25.4478C37.2795 25.2442 37.8121 25.6651 37.7463 26.1366C37.7417 26.6096 37.1585 26.9356 36.756 26.6784C36.2799 26.4243 36.3289 25.6299 36.8386 25.4478Z" fill="#1D1C1B"/>
<path d="M27.4951 26.0355C27.9344 25.7584 28.3997 26.1503 28.5497 26.562C28.7656 27.009 28.9248 27.485 29.0013 27.9764C29.0441 28.6208 28.1104 28.9576 27.7492 28.4126C27.5318 27.9366 27.4277 27.4146 27.2272 26.9309C27.0711 26.6171 27.1813 26.2023 27.4951 26.0355Z" fill="#1D1C1B"/>
<path d="M25.3535 28.0408C25.7071 27.8066 26.2796 27.9918 26.2918 28.4541C26.3791 29.3526 26.5015 30.271 26.9531 31.0701C27.7399 32.5885 29.4129 33.5866 31.1227 33.5529C31.4901 33.5804 31.957 33.4212 32.231 33.7534C32.5723 34.1085 32.3764 34.7836 31.885 34.8754C29.5813 35.2412 27.172 34.0106 25.9719 32.036C25.3902 31.0976 25.0657 30.0001 25.0458 28.8965C25.0443 28.5949 25.0718 28.2214 25.3535 28.0408Z" fill="#1D1C1B"/>
<path d="M29.0044 29.85C29.5111 29.6158 30.0836 30.2235 29.8647 30.7241C29.7468 31.1542 29.1605 31.3333 28.8223 31.0424C28.4151 30.7378 28.5161 30.0061 29.0044 29.85Z" fill="#1D1C1B"/>
<path d="M33.7798 32.6419C34.239 32.2945 34.934 32.8027 34.7901 33.3415C34.7319 33.8053 34.1334 34.0747 33.7584 33.7823C33.3727 33.5282 33.3818 32.8792 33.7798 32.6419Z" fill="#1D1C1B"/>
<path d="M18.3122 34.1605C18.727 33.8834 19.3301 34.234 19.3164 34.7253C19.3653 35.2381 18.7332 35.633 18.303 35.3315C17.8821 35.085 17.8943 34.4023 18.3122 34.1605Z" fill="#1D1C1B"/>
<path d="M23.6897 22.4169C23.9622 22.325 24.3143 22.2378 24.5439 22.4674C24.9342 22.7735 24.8118 23.4899 24.3204 23.6154C22.8509 24.0746 21.6019 25.1982 21.0401 26.637C20.6008 27.6963 20.6207 28.8765 20.7539 29.9969C20.9054 31.3134 21.3646 32.5762 22.0029 33.7319C22.3167 34.1804 21.8498 34.8539 21.3233 34.7284C20.7967 34.612 20.688 33.9906 20.4615 33.5819C19.6242 31.4771 18.9844 29.1199 19.5936 26.8682C20.1155 24.8308 21.6753 23.072 23.6897 22.4169Z" fill="#1EAB75"/>
<path d="M22.4558 35.532C22.7497 35.2855 23.1798 35.4018 23.4033 35.6835C23.8931 36.1703 24.4105 36.6279 24.9738 37.0275C25.4912 37.3581 25.133 38.2643 24.5268 38.1556C23.6834 37.8418 22.9487 37.254 22.3823 36.5621C22.116 36.2743 22.1297 35.7677 22.4558 35.532Z" fill="#E82026"/>
<circle cx="107.242" cy="25.725" r="25.725" fill="white"/>
<g clip-path="url(#clip0_1_613)">
<path d="M119.075 23.4482C119.182 23.4482 119.268 23.5368 119.268 23.6462V25.725C119.268 26.5031 119.198 27.2639 119.062 28.0019C118.014 33.7343 113.076 38.0664 107.157 38.0247C100.515 37.9779 95.2003 32.4897 95.215 25.6973C95.2296 18.9171 100.609 13.425 107.242 13.425C110.491 13.425 113.44 14.7435 115.605 16.8853C115.683 16.9626 115.685 17.09 115.608 17.1686L112.732 20.1096C112.658 20.1853 112.539 20.1873 112.463 20.1134C111.104 18.7908 109.266 17.9787 107.242 17.9787C103.062 17.9787 99.696 21.3966 99.6677 25.6713C99.6392 29.974 103.041 33.4713 107.242 33.4713C110.65 33.4713 113.532 31.1687 114.483 28.0019H107.435C107.328 28.0019 107.242 27.9132 107.242 27.8039V23.6461C107.242 23.5368 107.328 23.4481 107.435 23.4481H119.075V23.4482Z" fill="#2196F3"/>
<path d="M119.075 23.4482H117.623C117.73 23.4482 117.816 23.5369 117.816 23.6462V25.7251C117.816 26.5031 117.746 27.2639 117.61 28.0019C116.61 33.4707 112.07 37.665 106.515 38.0029C106.727 38.0157 106.941 38.0232 107.157 38.0247C113.076 38.0665 118.014 33.7343 119.062 28.0019C119.198 27.2639 119.268 26.5031 119.268 25.7251V23.6462C119.268 23.5369 119.182 23.4482 119.075 23.4482Z" fill="#1E88E5"/>
<path d="M100.362 22.481L96.7095 19.7819C98.7587 15.9915 102.707 13.425 107.242 13.425C110.491 13.425 113.44 14.7435 115.605 16.8853C115.683 16.9626 115.685 17.09 115.608 17.1686L112.732 20.1096C112.658 20.1852 112.539 20.1875 112.463 20.1138C111.104 18.7909 109.266 17.9788 107.242 17.9788C104.191 17.9788 101.562 19.823 100.362 22.481Z" fill="#F44336"/>
<path d="M99.3076 21.7019L100.362 22.4811C101.457 20.055 103.743 18.3077 106.454 18.0211C106.474 18.0188 106.494 18.0161 106.514 18.0141C106.276 17.9909 106.034 17.9788 105.79 17.9788C103.034 17.9788 100.633 19.4646 99.3076 21.7019Z" fill="#E53935"/>
<path d="M114.153 16.8853C114.231 16.9626 114.233 17.09 114.156 17.1686L111.822 19.5558C112.045 19.7297 112.259 19.9157 112.463 20.1135C112.538 20.1873 112.658 20.1854 112.732 20.1096L115.608 17.1686C115.685 17.09 115.683 16.9626 115.604 16.8853C113.44 14.7435 110.491 13.425 107.242 13.425C106.998 13.425 106.756 13.4333 106.515 13.448C109.477 13.6284 112.15 14.9042 114.153 16.8853Z" fill="#E53935"/>
<path d="M116.064 34.0842C113.868 36.5081 110.728 38.0251 107.242 38.0251C102.533 38.0251 98.4566 35.2578 96.4825 31.2262L100.211 28.6128C101.33 31.4603 104.057 33.4714 107.242 33.4714C109.24 33.4714 111.058 32.6794 112.411 31.3856L116.064 34.0842Z" fill="#4CAF50"/>
<path d="M100.211 28.6128L99.1118 29.3834C100.389 31.8167 102.9 33.4713 105.79 33.4713C106.034 33.4713 106.276 33.4591 106.514 33.436C103.646 33.1564 101.244 31.2409 100.211 28.6128Z" fill="#43A047"/>
<path d="M107.242 38.025C110.728 38.025 113.868 36.5079 116.064 34.0841L115.169 33.4231C113.107 36.0479 110.013 37.7892 106.517 38.0026C106.757 38.0172 106.998 38.025 107.242 38.025Z" fill="#43A047"/>
<path d="M99.6675 25.725C99.6675 26.7456 99.8606 27.7202 100.212 28.6127L96.4825 31.2261C95.6714 29.5709 95.215 27.7024 95.215 25.725C95.215 23.5694 95.757 21.5435 96.7095 19.7819L100.362 22.481C99.9163 23.4674 99.6675 24.5668 99.6675 25.725Z" fill="#FFC107"/>
<path d="M99.1121 29.3834L100.212 28.6128C99.8608 27.7204 99.6677 26.7457 99.6677 25.7251C99.6677 24.5669 99.9165 23.4675 100.362 22.4811L99.3078 21.7019C98.6231 22.8582 98.2257 24.215 98.216 25.6714C98.2071 27.0145 98.5325 28.2792 99.1121 29.3834Z" fill="#FFB300"/>
</g>
<circle cx="188.758" cy="25.725" r="25.725" fill="white"/>
<path d="M186.458 26.9437C186.382 26.9437 184.798 26.9442 184.067 26.9435C183.691 26.9432 183.557 26.8107 183.557 26.4393C183.556 25.4856 183.556 24.5318 183.557 23.578C183.557 23.2114 183.699 23.0715 184.07 23.0713C184.801 23.0708 186.377 23.071 186.458 23.071C186.458 23.0057 186.458 21.6287 186.458 20.9946C186.458 20.0571 186.629 19.1597 187.115 18.338C187.612 17.497 188.335 16.9209 189.263 16.5878C189.856 16.3743 190.473 16.2892 191.103 16.2887C191.892 16.2882 192.68 16.2889 193.469 16.2904C193.808 16.2908 193.958 16.4378 193.959 16.7725C193.96 17.6697 193.96 18.5669 193.959 19.4638C193.958 19.8021 193.814 19.938 193.468 19.9417C192.821 19.9486 192.174 19.9443 191.529 19.9698C190.877 19.9698 190.534 20.2821 190.534 20.9441C190.518 21.6443 190.527 22.3452 190.527 23.0708C190.588 23.0708 192.444 23.0706 193.311 23.0708C193.705 23.0708 193.84 23.2036 193.84 23.5922C193.84 24.5407 193.84 25.4896 193.839 26.4382C193.839 26.821 193.712 26.9432 193.316 26.9435C192.449 26.9439 190.6 26.9437 190.519 26.9437V34.6213C190.519 35.0306 190.388 35.1611 189.976 35.1611C188.972 35.1611 187.968 35.1613 186.964 35.1611C186.6 35.1611 186.458 35.0224 186.458 34.6654C186.458 32.165 186.458 27.0315 186.458 26.9437Z" fill="#3D6AD6"/>
<circle cx="270.275" cy="25.725" r="25.725" fill="white"/>
<g clip-path="url(#clip1_1_613)">
<path d="M271.027 24.9733H282.302V14.45C282.302 14.0351 281.965 13.6983 281.55 13.6983H271.027V24.9733Z" fill="#4CAF50"/>
<path d="M269.523 24.9733V13.6983H259C258.585 13.6983 258.248 14.0351 258.248 14.45V24.9733H269.523Z" fill="#F44336"/>
<path d="M269.523 26.4767H258.248V37C258.248 37.4149 258.585 37.7517 259 37.7517H269.523V26.4767Z" fill="#2196F3"/>
<path d="M271.027 26.4767V37.7517H281.55C281.965 37.7517 282.302 37.4149 282.302 37V26.4767H271.027Z" fill="#FFC107"/>
</g>
<defs>
<clipPath id="clip0_1_613">
<rect width="24" height="24.5455" fill="white" transform="translate(95.215 13.425) scale(1.00222)"/>
</clipPath>
<clipPath id="clip1_1_613">
<rect width="24" height="24" fill="white" transform="translate(258.248 13.6983) scale(1.00222)"/>
</clipPath>
</defs>
</svg>
