<svg width="33" height="33" viewBox="0 0 33 33" fill="none" xmlns="http://www.w3.org/2000/svg">
<path fill-rule="evenodd" clip-rule="evenodd" d="M16.5 0C19.5731 0.0350686 22.3494 0.79036 24.8289 2.26587C27.2788 3.71193 29.3167 5.76232 30.7478 8.22097C32.2143 10.7153 32.9651 13.5085 33 16.6003C32.9129 20.8308 31.5786 24.444 28.9971 27.4399C26.4155 30.4359 23.1092 32.2894 19.6865 32.9999V21.1391H22.9224L23.6542 16.4781H18.7543V13.4253C18.7271 12.7924 18.9273 12.1707 19.3186 11.6725C19.7104 11.173 20.4005 10.9105 21.3887 10.8849H24.3475V6.80194C24.3051 6.78828 23.9022 6.73427 23.139 6.6399C22.2734 6.53862 21.403 6.48452 20.5315 6.47785C18.5591 6.48695 16.9992 7.04333 15.8518 8.14699C14.7043 9.25034 14.1182 10.8466 14.0933 12.9359V16.4781H10.3645V21.1391H14.0933V32.9999C9.89077 32.2894 6.58443 30.4359 4.0029 27.4399C1.42136 24.444 0.0871078 20.8308 0 16.6003C0.0348511 13.5083 0.785577 10.7152 2.25218 8.22097C3.68329 5.76232 5.72123 3.71194 8.17112 2.26587C10.6505 0.790644 13.4268 0.0353527 16.5 0Z" fill="white"/>
</svg>
