<svg width="40" height="40" viewBox="0 0 40 40" fill="none" xmlns="http://www.w3.org/2000/svg">
<path d="M5.76598 27.8418C5.68394 27.7003 5.54973 27.5966 5.39214 27.553C5.23454 27.5093 5.06611 27.5291 4.92295 27.6081C4.77979 27.6872 4.67331 27.8192 4.62633 27.9758C4.57935 28.1325 4.59562 28.3013 4.67164 28.4461C11.1779 40.4458 28.8244 40.443 35.3283 28.4458C35.4081 28.3007 35.427 28.1299 35.3809 27.9709C35.3349 27.8118 35.2276 27.6776 35.0826 27.5976C34.9377 27.5175 34.7669 27.4983 34.6078 27.5441C34.4487 27.5899 34.3142 27.697 34.234 27.8418C32.8305 30.3885 30.7695 32.512 28.2659 33.9909C25.7623 35.4699 22.9078 36.25 20 36.25C17.0922 36.25 14.2376 35.4699 11.734 33.9909C9.23037 32.512 7.16941 30.3885 5.76598 27.8418Z" fill="white"/>
<path d="M32.3249 9.42473C32.4336 9.54685 32.5859 9.62149 32.7491 9.63262C32.9122 9.64375 33.0733 9.59049 33.1976 9.48427C33.3219 9.37804 33.3997 9.22732 33.4142 9.06442C33.4287 8.90153 33.3788 8.73944 33.2751 8.61293C26.5882 0.517642 13.4111 0.518237 6.72488 8.61317C6.62098 8.73965 6.57084 8.90185 6.58525 9.0649C6.59966 9.22795 6.67747 9.37884 6.80195 9.48514C6.92642 9.59143 7.08764 9.64465 7.25093 9.63335C7.41423 9.62204 7.56657 9.54713 7.67522 9.4247C13.8838 1.90962 26.1171 1.91041 32.3249 9.42473Z" fill="white"/>
<path d="M11.8274 8.94836C11.6979 9.04848 11.6128 9.1954 11.5904 9.35756C11.5681 9.51973 11.6103 9.68418 11.7079 9.81559C11.8055 9.947 11.9507 10.0349 12.1124 10.0603C12.2741 10.0858 12.4394 10.0468 12.5726 9.95176C14.7241 8.36542 17.3269 7.50959 20 7.5096C22.6731 7.50962 25.2759 8.36548 27.4273 9.95184C27.5606 10.0466 27.7258 10.0854 27.8873 10.0598C28.0488 10.0343 28.1939 9.94639 28.2914 9.81509C28.389 9.68378 28.4311 9.51948 28.4089 9.35745C28.3867 9.19541 28.3018 9.04854 28.1725 8.94834C25.8054 7.20246 22.9413 6.26053 20 6.26053C17.0586 6.26053 14.1945 7.20247 11.8274 8.94836Z" fill="white"/>
<path d="M20 33.75C22.0736 33.7542 24.121 33.2867 25.9872 32.3827C27.8534 31.4786 29.4894 30.1619 30.7715 28.5321C30.8705 28.4018 30.9145 28.2378 30.894 28.0754C30.8735 27.913 30.7902 27.7651 30.6618 27.6635C30.5335 27.5619 30.3705 27.5146 30.2077 27.5319C30.0449 27.5491 29.8954 27.6295 29.7912 27.7558C24.9972 34.0414 15.0021 34.0407 10.2087 27.7556C10.1045 27.6294 9.95497 27.5491 9.79223 27.532C9.62949 27.5148 9.4665 27.5621 9.33824 27.6637C9.20997 27.7653 9.12664 27.9132 9.10613 28.0755C9.08562 28.2379 9.12956 28.4018 9.22853 28.5321C10.5106 30.1619 12.1466 31.4787 14.0128 32.3827C15.879 33.2867 17.9264 33.7543 20 33.75Z" fill="white"/>
<path d="M2.82989 21.6052C2.6101 22.0229 2.50124 22.49 2.51372 22.9618C2.52621 23.4336 2.65962 23.8943 2.9012 24.2997C3.14277 24.7052 3.4844 25.0418 3.89337 25.2774C4.30234 25.513 4.76494 25.6396 5.23687 25.6451L12.1916 25.6452C12.1892 26.0577 12.2682 26.4666 12.4239 26.8486C12.5796 27.2306 12.8091 27.5782 13.0992 27.8715C13.3893 28.1647 13.7344 28.3979 14.1147 28.5578C14.495 28.7177 14.903 28.801 15.3156 28.8031L24.6844 28.8031C25.0975 28.8029 25.5064 28.7208 25.8875 28.5615C26.2686 28.4023 26.6144 28.1692 26.9049 27.8755C27.1954 27.5819 27.4248 27.2336 27.5798 26.8508C27.7349 26.4679 27.8126 26.0582 27.8084 25.6452H34.7632C35.2351 25.6396 35.6977 25.513 36.1067 25.2774C36.5156 25.0418 36.8573 24.7052 37.0988 24.2997C37.3404 23.8943 37.4738 23.4336 37.4863 22.9618C37.4987 22.49 37.3899 22.0229 37.1701 21.6052C36.3156 20.0222 34.9008 18.8153 33.2028 18.2212C33.6775 17.8557 34.0619 17.3862 34.3266 16.8488C34.5913 16.3114 34.7292 15.7205 34.7296 15.1215C34.5433 9.92804 27.0666 9.92788 26.8811 15.1215C26.8816 15.7207 27.0195 16.3117 27.2843 16.8492C27.5491 17.3866 27.9337 17.8561 28.4085 18.2216C26.8766 18.7611 25.572 19.8027 24.7066 21.177C24.0582 20.7416 23.3523 20.3985 22.6093 20.1575C23.2025 19.7402 23.6867 19.1864 24.0211 18.5428C24.3555 17.8992 24.5304 17.1847 24.5309 16.4594C24.3193 10.4647 15.6814 10.4623 15.4691 16.4595C15.4696 17.1847 15.6445 17.8993 15.9789 18.5428C16.3133 19.1864 16.7975 19.7402 17.3907 20.1575C16.6474 20.3986 15.9412 20.7419 15.2925 21.1776C14.4256 19.8046 13.1218 18.7635 11.591 18.222C12.0659 17.8565 12.4506 17.387 12.7155 16.8494C12.9804 16.3119 13.1184 15.7207 13.1189 15.1214C12.9389 9.93304 5.45392 9.92514 5.27037 15.1215C5.27085 15.7205 5.40874 16.3115 5.67343 16.8488C5.93812 17.3862 6.32256 17.8557 6.79717 18.2211C5.09921 18.8153 3.68436 20.0222 2.82989 21.6052ZM28.1311 15.1215C28.1378 14.4167 28.4226 13.743 28.9234 13.247C29.4242 12.7509 30.1005 12.4727 30.8054 12.4727C31.5103 12.4727 32.1866 12.751 32.6874 13.247C33.1882 13.743 33.4729 14.4167 33.4796 15.1215C33.4729 15.8264 33.1882 16.5001 32.6874 16.9961C32.1866 17.4921 31.5102 17.7704 30.8053 17.7704C30.1005 17.7703 29.4241 17.4921 28.9233 16.996C28.4225 16.5 28.1378 15.8263 28.1311 15.1215ZM30.8009 19.0455C31.8821 19.0447 32.9432 19.3375 33.8711 19.8925C34.7989 20.4476 35.5586 21.2442 36.0691 22.1973C36.1888 22.4242 36.2483 22.6781 36.2418 22.9346C36.2353 23.1911 36.1631 23.4416 36.032 23.6622C35.9009 23.8828 35.7154 24.066 35.4933 24.1943C35.2711 24.3227 35.0197 24.3918 34.7631 24.3951H27.5305C27.0808 23.47 26.4574 22.6399 25.6941 21.9503C26.2232 21.0675 26.9714 20.3362 27.8661 19.8273C28.7607 19.3184 29.7717 19.0491 30.8009 19.0455ZM16.7191 16.4594C16.8569 12.1234 23.1437 12.1245 23.2809 16.4595C23.1431 20.7957 16.8562 20.7947 16.7191 16.4594ZM26.3339 24.7785C26.4853 25.065 26.5606 25.3856 26.5524 25.7095C26.5443 26.0335 26.4531 26.3499 26.2875 26.6285C26.1219 26.907 25.8875 27.1383 25.6068 27.3003C25.326 27.4622 25.0084 27.5492 24.6844 27.5531L15.3155 27.5531C14.9903 27.5525 14.6708 27.4674 14.3882 27.3063C14.1056 27.1451 13.8697 26.9134 13.7035 26.6338C13.5373 26.3542 13.4465 26.0363 13.4399 25.7111C13.4333 25.3859 13.5113 25.0646 13.6661 24.7785C16.2854 19.7643 23.7152 19.7647 26.3339 24.7785ZM6.52039 15.1215C6.52704 14.4166 6.81172 13.7428 7.31253 13.2467C7.81333 12.7506 8.48975 12.4723 9.19467 12.4723C9.89959 12.4723 10.576 12.7507 11.0768 13.2468C11.5776 13.7429 11.8623 14.4166 11.8689 15.1215C11.8622 15.8264 11.5776 16.5002 11.0768 16.9963C10.576 17.4924 9.89954 17.7707 9.19462 17.7707C8.48969 17.7707 7.81328 17.4923 7.31249 16.9962C6.81169 16.5001 6.52702 15.8264 6.52039 15.1215ZM9.18881 19.0454C10.2196 19.0483 11.2323 19.3172 12.1286 19.8262C13.025 20.3352 13.7748 21.067 14.3055 21.9508C13.5424 22.6403 12.9191 23.4702 12.4694 24.3951H5.23682C4.98027 24.3918 4.72887 24.3226 4.50671 24.1943C4.28454 24.0659 4.09906 23.8827 3.968 23.6621C3.83695 23.4415 3.76473 23.191 3.75825 22.9345C3.75177 22.678 3.81126 22.4242 3.93101 22.1972C4.44068 21.2457 5.19875 20.4501 6.12458 19.8951C7.05041 19.3401 8.10937 19.0465 9.18881 19.0454Z" fill="white"/>
</svg>
