<svg width="9" height="5" viewBox="0 0 9 5" fill="none" xmlns="http://www.w3.org/2000/svg">
<path d="M4.37492 3.49106L1.06692 0.183055C0.82285 -0.0610184 0.427128 -0.0610184 0.183055 0.183055C-0.0610184 0.427128 -0.0610184 0.82285 0.183055 1.06692L3.93299 4.81686C4.17706 5.06093 4.57278 5.06093 4.81686 4.81686L8.56679 1.06692C8.81087 0.82285 8.81087 0.427128 8.56679 0.183055C8.32272 -0.0610184 7.927 -0.0610184 7.68292 0.183055L4.37492 3.49106Z" fill="black"/>
<mask id="mask0_1_690" style="mask-type:luminance" maskUnits="userSpaceOnUse" x="0" y="0" width="9" height="5">
<path d="M4.37492 3.49106L1.06692 0.183055C0.82285 -0.0610184 0.427128 -0.0610184 0.183055 0.183055C-0.0610184 0.427128 -0.0610184 0.82285 0.183055 1.06692L3.93299 4.81686C4.17706 5.06093 4.57278 5.06093 4.81686 4.81686L8.56679 1.06692C8.81087 0.82285 8.81087 0.427128 8.56679 0.183055C8.32272 -0.0610184 7.927 -0.0610184 7.68292 0.183055L4.37492 3.49106Z" fill="white"/>
</mask>
<g mask="url(#mask0_1_690)">
</g>
</svg>
