<svg width="180" height="58" viewBox="0 0 180 58" fill="none" xmlns="http://www.w3.org/2000/svg">
<g clip-path="url(#clip0_0_38)">
<path d="M83.0392 3.54372C83.1024 3.29059 83.1657 3.19567 83.3872 3.19567C83.6087 3.19567 83.672 3.29059 83.7352 3.54372L85.3489 10.03H81.4255L83.0392 3.54372ZM77.0275 17.0541H79.4005C79.5904 17.0541 79.7802 16.8959 79.8119 16.7061L80.8243 12.5295H85.9501L86.9625 16.7061C87.0258 16.8959 87.184 17.0541 87.4055 17.0541H89.7469C89.9684 17.0541 90.1582 16.9275 90.1582 16.7061C90.1582 16.6744 90.1266 16.6428 90.1266 16.5795L86.4879 2.87927C85.9501 0.822654 84.3364 0.632812 83.3872 0.632812C82.438 0.632812 80.8243 0.822654 80.3181 2.87927L76.6478 16.5795C76.6478 16.6428 76.6478 16.6744 76.6478 16.7061C76.6478 16.9275 76.806 17.0541 77.0275 17.0541Z" fill="#2B2A29"/>
<path d="M94.9675 7.08747C95.5687 6.99255 96.5495 6.92927 97.0874 6.92927C99.0175 6.92927 99.4605 8.25816 99.4605 10.0617V11.7386C99.4605 13.5421 99.0175 14.871 97.0874 14.871C96.2964 14.871 95.3789 14.8077 94.9675 14.7128V7.08747ZM92.6262 16.6745C93.9867 17.0225 95.6636 17.244 97.0874 17.244C100.663 17.244 102.403 15.1557 102.403 11.7386V10.0617C102.403 6.64451 100.663 4.58789 97.0874 4.58789C96.5495 4.58789 95.7902 4.61953 94.9675 4.71445V0.85434C94.9675 0.601218 94.7461 0.411377 94.5246 0.411377H92.468C92.2148 0.411377 92.025 0.601218 92.025 0.85434V16.0733C92.025 16.4213 92.1199 16.5479 92.6262 16.6745Z" fill="#2B2A29"/>
<path d="M108.699 17.2123C110.123 17.2123 111.041 16.8642 112.211 16.1365V16.6427C112.211 16.8642 112.401 17.0541 112.654 17.0541H114.679C114.933 17.0541 115.122 16.8642 115.122 16.6427V5.18896C115.122 4.93584 114.933 4.71436 114.679 4.71436H112.654C112.401 4.71436 112.211 4.93584 112.211 5.18896V13.9533C111.579 14.2697 110.503 14.8076 109.68 14.8076C108.984 14.8076 108.604 14.681 108.32 14.4279C107.877 14.0482 107.782 13.4154 107.782 12.308V5.18896C107.782 4.93584 107.592 4.71436 107.339 4.71436H105.314C105.061 4.71436 104.871 4.93584 104.871 5.18896V12.308C104.871 14.1432 105.156 15.5037 105.978 16.2947C106.611 16.9275 107.592 17.2123 108.699 17.2123Z" fill="#2B2A29"/>
<path d="M126.893 3.25895C127.367 3.22731 127.937 3.19567 128.759 3.19567C131.006 3.19567 132.683 4.04996 132.683 7.34055V10.5362C132.683 13.8268 131.006 14.6811 128.759 14.6811C127.937 14.6811 127.367 14.6494 126.893 14.6178V3.25895ZM124.393 16.9908C125.057 17.0857 127.177 17.2439 128.759 17.2439C133.221 17.2439 135.752 14.8709 135.752 10.5362V7.34055C135.752 3.00583 133.221 0.632812 128.759 0.632812C127.177 0.632812 125.057 0.791014 124.393 0.885935C124.013 0.980855 123.823 1.13906 123.823 1.58202V16.2947C123.823 16.7377 124.013 16.9275 124.393 16.9908Z" fill="#2B2A29"/>
<path d="M138.853 17.0541H140.909C141.162 17.0541 141.352 16.8327 141.352 16.6112V7.78356C142.301 7.27731 143.187 7.02419 143.947 7.02419C145.434 7.02419 145.75 7.49879 145.75 9.39721V16.6112C145.75 16.8327 145.972 17.0541 146.193 17.0541H148.25C148.503 17.0541 148.693 16.8327 148.693 16.6112V9.39721C148.693 6.70779 147.775 4.58789 144.706 4.58789C143.124 4.58789 142.206 4.87265 141.352 5.3789V0.85434C141.352 0.601218 141.162 0.411377 140.909 0.411377H138.853C138.631 0.411377 138.41 0.601218 138.41 0.85434V16.6112C138.41 16.8327 138.631 17.0541 138.853 17.0541Z" fill="#2B2A29"/>
<path d="M154.072 13.5104C154.072 12.2765 154.514 11.6437 156.539 11.6437H157.963V14.3331C157.299 14.6811 156.476 14.9343 155.685 14.9343C154.578 14.9343 154.072 14.6495 154.072 13.5737V13.5104ZM154.957 17.244C156.033 17.244 157.077 16.8959 158.121 16.2948V16.6428C158.121 16.8643 158.311 17.0541 158.564 17.0541H160.431C160.684 17.0541 160.874 16.8643 160.874 16.6428V8.7644C160.874 5.94842 159.166 4.58789 156.002 4.58789C154.451 4.58789 153.154 4.74609 152.268 4.93593C151.983 4.99921 151.857 5.15742 151.857 5.3789V6.77107C151.857 7.08747 152.047 7.15075 152.268 7.15075H152.363C153.091 7.05583 154.578 6.99255 156.002 6.99255C157.299 6.99255 157.963 7.34059 157.963 8.7644V9.71361H156.539C152.679 9.71361 151.129 11.0109 151.129 13.5104V13.5737C151.129 16.5479 153.122 17.244 154.957 17.244Z" fill="#2B2A29"/>
<path d="M166.728 7.08747C167.329 6.99255 168.31 6.92927 168.848 6.92927C170.746 6.92927 171.221 8.25816 171.221 10.0617V11.7386C171.221 13.5421 170.746 14.871 168.848 14.871C168.056 14.871 167.139 14.8077 166.728 14.7128V7.08747ZM164.386 16.6745C165.747 17.0225 167.424 17.244 168.848 17.244C172.423 17.244 174.163 15.1557 174.163 11.7386V10.0617C174.163 6.64451 172.423 4.58789 168.848 4.58789C168.31 4.58789 167.55 4.61953 166.728 4.71445V0.85434C166.728 0.601218 166.506 0.411377 166.285 0.411377H164.228C163.975 0.411377 163.785 0.601218 163.785 0.85434V16.0733C163.785 16.4213 163.88 16.5479 164.386 16.6745Z" fill="#2B2A29"/>
<path d="M177.074 3.10065H179.226C179.479 3.10065 179.668 2.87917 179.668 2.65769V0.727631C179.668 0.474509 179.479 0.284668 179.226 0.284668H177.074C176.821 0.284668 176.599 0.474509 176.599 0.727631V2.65769C176.599 2.87917 176.821 3.10065 177.074 3.10065Z" fill="#2B2A29"/>
<path d="M179.162 4.71436H177.137C176.884 4.71436 176.663 4.93584 176.663 5.15732V16.6111C176.663 16.8326 176.884 17.0541 177.137 17.0541H179.162C179.415 17.0541 179.605 16.8326 179.605 16.6111V5.15732C179.605 4.93584 179.415 4.71436 179.162 4.71436Z" fill="#2B2A29"/>
<path d="M79.3056 28.6661L80.5079 29.3939C82.5329 30.6278 83.0708 31.0075 83.0708 32.0833C83.0708 33.2223 82.6911 34.393 80.0333 34.393C79.1158 34.393 78.0083 34.2981 77.3439 34.2348C77.3123 34.2348 77.2806 34.2348 77.249 34.2348C76.8377 34.2348 76.5845 34.4563 76.5845 34.836V34.9309C76.5845 35.4688 77.1224 35.5637 77.3439 35.5953C77.7552 35.6586 78.6728 35.7852 80.0333 35.7852C83.7352 35.7852 84.5262 33.7602 84.5262 32.0833C84.5262 30.2165 83.2606 29.3306 81.204 28.0966L80.0333 27.4322C78.3564 26.4197 77.7552 25.8818 77.7552 24.8377C77.7552 24.1099 78.0716 23.1607 80.8243 23.1607C81.5837 23.1607 83.1024 23.2873 83.2606 23.2873C83.3239 23.2873 83.4188 23.2873 83.4821 23.2873C84.1149 23.2873 84.1782 22.8443 84.1782 22.6861V22.5912C84.1782 21.99 83.6087 21.9584 83.4188 21.9268C82.8493 21.8635 81.6153 21.7686 80.856 21.7686C77.9134 21.7686 76.2998 22.8443 76.2998 24.8377C76.2998 26.7044 77.5654 27.5904 79.3056 28.6661Z" fill="#2B2A29"/>
<path d="M89.4621 34.4563C88.861 34.4563 87.9434 34.3931 87.2473 34.2665V26.926C87.7852 26.8627 88.6395 26.7361 89.4621 26.7361C91.139 26.7361 91.8668 27.7486 91.8668 30.0583V31.229C91.8668 33.5071 91.1707 34.4563 89.4621 34.4563ZM93.2906 31.229V30.0583C93.2906 27.0525 91.9301 25.4072 89.4621 25.4072C88.1649 25.4072 86.7727 25.692 86.3297 25.7553C85.9817 25.8502 85.8235 26.04 85.8235 26.4197V38.4747C85.8235 38.8543 86.1082 39.1391 86.4563 39.1391H86.6461C86.9942 39.1391 87.2473 38.8543 87.2473 38.4747V35.5954C87.9434 35.6903 88.8293 35.7852 89.4621 35.7852C91.2023 35.7852 93.2906 34.9942 93.2906 31.229Z" fill="#2B2A29"/>
<path d="M98.7011 26.7361C100.473 26.7361 101.296 27.7802 101.296 29.9951V31.229C101.296 33.4122 100.473 34.4563 98.7011 34.4563C96.8976 34.4563 96.0749 33.4122 96.0749 31.229V29.9951C96.0749 27.7802 96.8976 26.7361 98.7011 26.7361ZM98.7011 35.7852C101.296 35.7852 102.719 34.1716 102.719 31.229V29.9951C102.719 27.0525 101.296 25.4072 98.7011 25.4072C96.0749 25.4072 94.6511 27.0525 94.6511 29.9951V31.229C94.6511 34.1716 96.0749 35.7852 98.7011 35.7852Z" fill="#2B2A29"/>
<path d="M108.763 26.135V26.0084C108.763 25.7869 108.668 25.4072 107.972 25.4072C107.181 25.4072 106.516 25.5971 105.757 26.0084C105.694 25.7236 105.44 25.5021 105.124 25.5021H104.997C104.618 25.5021 104.333 25.7869 104.333 26.1982V35.0259C104.333 35.3739 104.649 35.6903 104.997 35.6903H105.124C105.472 35.6903 105.788 35.3739 105.788 35.0259V27.4322C106.801 26.831 107.434 26.7361 107.972 26.7361C108.668 26.7361 108.763 26.3881 108.763 26.135Z" fill="#2B2A29"/>
<path d="M115.755 35.1208V35.0258C115.755 34.8993 115.692 34.4563 115.059 34.4563H114.173C113.509 34.4563 113.256 34.393 113.256 33.5387V26.8627H115.091C115.47 26.8627 115.755 26.6095 115.755 26.2615V26.1033C115.755 25.7552 115.47 25.5021 115.091 25.5021H113.256V24.015C113.256 23.6353 113.002 23.3506 112.654 23.3506H112.465C112.085 23.3506 111.832 23.6353 111.832 24.015V25.5021H110.345C109.965 25.5021 109.68 25.7552 109.68 26.1033V26.2615C109.68 26.6095 109.965 26.8627 110.345 26.8627H111.832V33.5387C111.832 35.5321 113.097 35.7852 114.173 35.7852C114.521 35.7852 114.901 35.7536 115.154 35.7219C115.66 35.6586 115.755 35.3106 115.755 35.1208Z" fill="#2B2A29"/>
<path d="M117.4 35.5321C118.033 35.6587 119.236 35.7852 120.058 35.7852C122.273 35.7852 123.507 34.8044 123.507 33.0009C123.507 31.6087 122.495 30.9443 121.039 30.1533L119.837 29.4888C118.761 28.8877 118.255 28.508 118.255 27.9068C118.255 27.0525 118.698 26.7361 119.963 26.7361C120.818 26.7361 121.704 26.8627 122.241 26.926L122.431 26.9576C122.495 26.9576 122.558 26.9576 122.621 26.9576C122.779 26.9576 123.191 26.8943 123.191 26.3564V26.1982C123.191 25.6603 122.748 25.6287 122.526 25.5971L122.4 25.5654C121.798 25.5021 121.134 25.4072 119.9 25.4072C117.938 25.4072 116.831 26.3248 116.831 27.9068C116.831 29.3623 117.843 29.9951 119.172 30.7228L120.311 31.3556C121.83 32.1466 122.083 32.463 122.083 33.0009C122.083 34.045 121.514 34.4563 120.09 34.4563C119.52 34.4563 118.603 34.3614 117.495 34.1716C117.052 34.1083 116.736 34.3614 116.736 34.7411V34.9309C116.736 35.4055 117.147 35.4688 117.4 35.5321Z" fill="#2B2A29"/>
<path d="M137.239 34.9942V34.7727C137.239 34.5196 137.112 34.2348 136.701 34.2348C136.638 34.2348 136.606 34.2348 136.543 34.2348C135.942 34.2981 134.581 34.393 133.474 34.393C131.322 34.393 130.151 32.8743 130.151 29.9317V27.5904C130.151 24.6795 131.322 23.1607 133.474 23.1607C134.613 23.1607 135.942 23.2556 136.574 23.3189C137.081 23.3506 137.239 23.0658 137.239 22.781V22.5596C137.239 22.2115 136.922 21.99 136.638 21.9584L136.543 21.9268C136.005 21.8635 135.056 21.7686 133.474 21.7686C131.702 21.7686 128.728 22.5279 128.728 27.5904V29.9317C128.728 35.0258 131.702 35.7852 133.474 35.7852C135.056 35.7852 136.037 35.6586 136.543 35.627L136.638 35.5953C136.922 35.5637 137.239 35.3422 137.239 34.9942Z" fill="#2B2A29"/>
<path d="M142.365 34.4563C140.593 34.4563 139.77 33.4439 139.77 31.229V29.9951C139.77 27.7802 140.593 26.7361 142.365 26.7361C144.136 26.7361 144.959 27.7802 144.959 29.9951V31.229C144.959 33.4439 144.136 34.4563 142.365 34.4563ZM146.415 29.9951C146.415 27.0525 144.959 25.4072 142.365 25.4072C139.77 25.4072 138.346 27.0525 138.346 29.9951V31.229C138.346 34.1716 139.77 35.7852 142.365 35.7852C144.959 35.7852 146.415 34.1716 146.415 31.229V29.9951Z" fill="#2B2A29"/>
<path d="M154.736 35.6901H154.894C155.242 35.6901 155.527 35.3737 155.527 34.994V26.1664C155.527 25.8184 155.242 25.502 154.863 25.502H154.768C154.388 25.502 154.103 25.8184 154.103 26.1664V33.8233C153.407 34.1081 152.458 34.4245 151.572 34.4245C150.148 34.4245 149.452 33.6651 149.452 32.0515V26.1664C149.452 25.8184 149.167 25.502 148.819 25.502H148.693C148.313 25.502 148.028 25.8184 148.028 26.1664V32.0515C148.028 34.3929 149.325 35.7534 151.509 35.7534C152.331 35.7534 153.217 35.5636 154.135 35.1839C154.198 35.4686 154.451 35.6901 154.736 35.6901Z" fill="#2B2A29"/>
<path d="M158.216 25.5021H158.058C157.71 25.5021 157.425 25.7869 157.425 26.1982V35.0259C157.425 35.3739 157.71 35.6903 158.09 35.6903H158.185C158.564 35.6903 158.849 35.3739 158.849 35.0259V27.3689C159.735 26.9576 160.653 26.7361 161.38 26.7361C162.804 26.7361 163.5 27.5271 163.5 29.1408V35.0259C163.5 35.3739 163.785 35.6903 164.133 35.6903H164.26C164.639 35.6903 164.924 35.3739 164.924 35.0259V29.1408C164.924 26.7678 163.659 25.4072 161.444 25.4072C160.621 25.4072 159.735 25.6287 158.818 25.9768C158.754 25.692 158.501 25.5021 158.216 25.5021Z" fill="#2B2A29"/>
<path d="M170.43 26.7361C171.031 26.7361 171.695 26.7994 172.549 26.8943C172.961 26.9892 173.277 26.7361 173.277 26.3564V26.2299C173.277 25.8502 173.087 25.6287 172.676 25.5971C171.79 25.4705 170.967 25.4072 170.43 25.4072C167.962 25.4072 166.538 27.0842 166.538 29.9951V31.1658C166.538 34.045 167.993 35.7852 170.43 35.7852C170.967 35.7852 171.79 35.7219 172.676 35.627C173.087 35.5637 173.277 35.3423 173.277 34.9942V34.8677C173.277 34.5196 173.024 34.2981 172.676 34.2981C172.644 34.2981 172.581 34.2981 172.549 34.2981C171.695 34.3931 171.031 34.4563 170.43 34.4563C168.753 34.4563 167.993 33.4122 167.993 31.1658V29.9951C167.993 27.7802 168.753 26.7361 170.43 26.7361Z" fill="#2B2A29"/>
<path d="M175.555 35.785H175.65C176.03 35.785 176.315 35.5003 176.315 35.1206V26.1664C176.315 25.8184 176.03 25.502 175.65 25.502H175.555C175.176 25.502 174.891 25.8184 174.891 26.1664V35.1206C174.891 35.5003 175.176 35.785 175.555 35.785Z" fill="#2B2A29"/>
<path d="M175.555 24.3947H175.65C176.03 24.3947 176.315 24.1099 176.315 23.7303V22.433C176.315 22.0533 176.03 21.7686 175.65 21.7686H175.555C175.176 21.7686 174.891 22.0533 174.891 22.433V23.7303C174.891 24.1099 175.176 24.3947 175.555 24.3947Z" fill="#2B2A29"/>
<path d="M179.384 21.8635H179.194C178.846 21.8635 178.561 22.1483 178.561 22.4963V35.1208C178.561 35.5005 178.846 35.7852 179.194 35.7852H179.384C179.7 35.7852 179.985 35.5005 179.985 35.1841V22.4647C179.985 22.1166 179.7 21.8635 179.384 21.8635Z" fill="#2B2A29"/>
<path d="M80.9509 52.9025C80.8876 52.8393 80.7927 52.8076 80.6661 52.8076H80.2232C80.1282 52.8076 80.0333 52.8393 79.9384 52.9025C79.8435 52.9658 79.8118 53.0924 79.8118 53.2189V53.7885C79.8118 53.8834 79.8435 54.0099 79.9384 54.0732C80.0333 54.1365 80.1282 54.1998 80.2232 54.1998H80.6661C80.7927 54.1998 80.8876 54.1365 80.9509 54.0732C81.0458 54.0099 81.1091 53.8834 81.1091 53.7885V53.2189C81.1091 53.0924 81.0458 52.9658 80.9509 52.9025Z" fill="#2B2A29"/>
<path d="M79.1158 52.9025C79.0525 52.8393 78.9259 52.8076 78.831 52.8076H78.4197C78.2931 52.8076 78.1982 52.8393 78.1033 52.9025C78.0084 52.9658 77.9767 53.0924 77.9767 53.2189V53.7885C77.9767 53.8834 78.0084 53.9783 78.1033 54.0732C78.1666 54.1365 78.2931 54.1998 78.4197 54.1998H78.831C78.9259 54.1998 79.0208 54.1681 79.1158 54.0732C79.2423 53.9783 79.274 53.8517 79.274 53.7885V53.2189C79.274 53.0924 79.2107 52.9658 79.1158 52.9025Z" fill="#2B2A29"/>
<path d="M90.9492 42.3979C90.8227 42.3979 90.7277 42.4296 90.6328 42.4929C90.5695 42.5878 90.5063 42.7144 90.5063 42.8409V43.4421C90.5063 43.5686 90.5379 43.6636 90.6328 43.7585C90.7277 43.8218 90.8227 43.8534 90.9492 43.8534H91.4238C91.5504 43.8534 91.6453 43.8218 91.7402 43.7585C91.8351 43.6636 91.8668 43.5686 91.8668 43.4421V42.8409C91.8668 42.7144 91.8351 42.5878 91.7402 42.5245C91.6453 42.4296 91.5504 42.3979 91.4238 42.3979H90.9492Z" fill="#2B2A29"/>
<path d="M93.2273 49.0423H93.1957H89.4938C89.3672 49.0423 89.209 49.0423 89.0824 49.0423V46.6376C89.209 46.5427 89.3672 46.4794 89.5254 46.4161C89.7469 46.3212 89.9684 46.2579 90.1582 46.2263C90.3797 46.1947 90.5695 46.163 90.7594 46.1314C90.9492 46.0997 91.1074 46.0997 91.2023 46.0997C91.582 46.0997 91.8984 46.1314 92.1832 46.1947C92.4363 46.2579 92.6578 46.3529 92.816 46.5111C92.9742 46.6376 93.1007 46.8275 93.1957 47.0806C93.2589 47.3337 93.3222 47.6501 93.3222 48.0614V48.2513C93.3222 48.4411 93.3222 48.5993 93.2906 48.7259C93.2906 48.8841 93.2589 48.9474 93.2589 49.0106L93.2273 49.0423ZM93.7968 45.5302C93.5121 45.2771 93.164 45.0873 92.7843 44.9607C92.373 44.8658 91.9301 44.8025 91.4238 44.8025C91.2973 44.8025 91.1391 44.8025 90.9176 44.8341C90.6961 44.8341 90.4746 44.8658 90.2531 44.9291C90 44.9923 89.7469 45.0556 89.4938 45.1505C89.3672 45.2138 89.209 45.2771 89.0824 45.3404V45.2455C89.0824 45.1189 89.0508 45.024 88.9875 44.9607C88.8926 44.8658 88.7977 44.8341 88.7028 44.8341H88.1649C88.0699 44.8341 87.975 44.8658 87.8801 44.9607C87.8168 45.024 87.7852 45.1505 87.7852 45.2455V49.0423H86.2032C85.9501 49.0423 85.8551 49.0106 85.8551 48.979C85.8551 48.979 85.8235 48.9474 85.8235 48.7892V46.0681C85.8235 45.9415 85.7602 45.8466 85.6969 45.7833C85.6336 45.7517 85.5704 45.7201 85.4754 45.6884C85.254 45.6251 85.0325 45.5935 84.7794 45.5619C84.4946 45.5302 84.2415 45.5302 83.9884 45.5302C83.1341 45.5302 82.4696 45.7201 81.995 46.1314C81.4888 46.5111 81.2357 47.1439 81.2357 47.9982V50.0548C81.2357 50.1813 81.2357 50.3395 81.2357 50.4977C81.2357 50.5927 81.2357 50.7509 81.204 50.8774C81.0775 50.9091 80.9509 50.9091 80.7927 50.9407C80.5712 50.9407 80.3497 50.9407 80.1282 50.9407C79.5587 50.9407 79.1158 50.8774 78.831 50.7509C78.5146 50.5927 78.2931 50.4028 78.1349 50.1813C77.9767 49.9599 77.8818 49.7067 77.8501 49.3903C77.7869 49.0739 77.7552 48.6942 77.7552 48.3462C77.7552 48.2196 77.7869 48.0614 77.7869 47.8716C77.8185 47.6818 77.8501 47.4919 77.8501 47.3021C77.8501 47.1755 77.8185 47.0489 77.7552 46.9857C77.7236 46.9224 77.6287 46.8907 77.5021 46.8907H77.0275C76.806 46.8907 76.6478 47.0173 76.6162 47.2388C76.5845 47.3654 76.5529 47.4919 76.5529 47.6185C76.5529 47.745 76.5213 47.9032 76.5213 48.0298C76.4896 48.1564 76.4896 48.2829 76.4896 48.4095C76.4896 48.5044 76.458 48.5993 76.458 48.6942C76.458 49.2005 76.5213 49.7067 76.6478 50.1181C76.7427 50.561 76.9642 50.9723 77.249 51.2887C77.5021 51.6051 77.8818 51.8266 78.3564 52.0165C78.831 52.1747 79.4005 52.2696 80.0966 52.2696C80.4446 52.2696 80.8243 52.2379 81.1724 52.2379C81.5204 52.2063 81.8368 52.1747 82.1216 52.1114C82.3747 52.0797 82.5013 51.9215 82.5013 51.7001C82.5329 51.6051 82.5329 51.4786 82.5329 51.352V50.9091C82.5329 50.7509 82.5329 50.6243 82.5329 50.4977V48.0614C82.5329 47.8083 82.5645 47.5868 82.6278 47.4286C82.6911 47.2704 82.786 47.1439 82.8809 47.0489C83.0075 46.954 83.1341 46.8907 83.2923 46.8591C83.4821 46.8275 83.672 46.7958 83.9251 46.7958C84.0516 46.7958 84.1782 46.7958 84.2731 46.7958C84.3364 46.7958 84.3997 46.8275 84.4946 46.8275V49.0106C84.4946 49.5169 84.6212 49.8649 84.8426 50.0864C85.0958 50.2763 85.4438 50.3712 85.9817 50.3712H91.8668C92.1199 50.3712 92.373 50.3712 92.6578 50.3712H93.4172C93.6386 50.3395 93.8285 50.3395 93.9234 50.3395C94.1132 50.3079 94.2398 50.2446 94.3347 50.1181C94.398 50.0548 94.4613 49.9599 94.4929 49.8333C94.5246 49.7384 94.5562 49.6118 94.5562 49.4536C94.5878 49.2954 94.5878 49.1688 94.6195 49.0106C94.6195 48.8524 94.6195 48.6942 94.6195 48.536C94.6195 48.3778 94.6195 48.2513 94.6195 48.1247V47.9032C94.6195 47.3654 94.5562 46.8907 94.4296 46.5111C94.2714 46.0997 94.0816 45.7833 93.7968 45.5302Z" fill="#2B2A29"/>
<path d="M100.315 51.0674H99.9034C99.8085 51.0674 99.7136 51.099 99.6187 51.1623C99.5237 51.2572 99.4604 51.3521 99.4604 51.4787V52.1115C99.4604 52.2064 99.5237 52.333 99.6187 52.3963C99.7136 52.4912 99.8085 52.5228 99.9034 52.5228H100.315C100.441 52.5228 100.568 52.4912 100.631 52.3963C100.726 52.3014 100.758 52.2064 100.758 52.1115V51.4787C100.758 51.3521 100.726 51.2572 100.631 51.1623C100.568 51.099 100.441 51.0674 100.315 51.0674Z" fill="#2B2A29"/>
<path d="M98.5429 51.0674H98.1316C98.005 51.0674 97.9101 51.099 97.8152 51.1623C97.7519 51.2572 97.6886 51.3521 97.6886 51.4787V52.1115C97.6886 52.2064 97.7519 52.3014 97.8152 52.3963C97.9101 52.4912 98.005 52.5228 98.1316 52.5228H98.5429C98.6694 52.5228 98.7644 52.4912 98.8593 52.3963C98.9542 52.333 98.9858 52.2064 98.9858 52.1115V51.4787C98.9858 51.3521 98.9542 51.2572 98.8593 51.1623C98.7644 51.099 98.6694 51.0674 98.5429 51.0674Z" fill="#2B2A29"/>
<path d="M99.8718 50.3081C99.9983 50.3081 100.093 50.2765 100.188 50.2448C100.315 50.1815 100.41 50.1183 100.441 50.0233C100.505 49.9601 100.536 49.8968 100.536 49.7702C100.568 49.5804 100.6 49.3589 100.6 49.0108C100.6 48.7261 100.6 48.378 100.6 48.03V46.9542C100.6 46.796 100.6 46.6378 100.6 46.448L100.568 45.8152C100.568 45.7203 100.536 45.6253 100.473 45.5304C100.41 45.4671 100.283 45.4039 100.188 45.4039H99.6503C99.5237 45.4039 99.4288 45.4671 99.3655 45.5621C99.3023 45.6253 99.2706 45.7203 99.2706 45.8152C99.2706 46.1316 99.2706 46.3847 99.2706 46.6378C99.2706 46.891 99.2706 47.1124 99.2706 47.3656V48.821C99.2706 48.9159 99.2706 48.9792 99.239 49.0108C99.2073 49.0108 99.144 49.0425 98.9542 49.0425H97.9417C97.8468 49.0425 97.7519 49.0108 97.657 49.0108C97.5937 49.0108 97.5304 48.9792 97.4988 48.9476C97.4671 48.9159 97.4355 48.8843 97.4038 48.8526C97.4038 48.7894 97.3722 48.6944 97.3722 48.5362V41.8918C97.3722 41.7969 97.3406 41.702 97.2773 41.607C97.214 41.5437 97.0874 41.4805 96.9925 41.4805H96.423C96.3281 41.4805 96.2331 41.5437 96.1382 41.607C96.0749 41.702 96.0433 41.7969 96.0433 41.8918V48.7577C96.0433 49.0741 96.0749 49.3273 96.1382 49.5171C96.2015 49.7386 96.3281 49.8968 96.4863 50.055C96.6445 50.1815 96.8027 50.2448 97.0242 50.3081C97.214 50.3397 97.4355 50.3714 97.6886 50.3714H98.6694C98.796 50.3714 98.9542 50.3714 99.0808 50.3714C99.239 50.3714 99.3655 50.3397 99.5237 50.3397C99.6503 50.3397 99.7769 50.3081 99.8718 50.3081Z" fill="#2B2A29"/>
<path d="M106.833 41.512H106.263C106.168 41.512 106.073 41.5436 105.978 41.6069C105.915 41.7018 105.883 41.7967 105.883 41.8916V48.8209C105.883 48.9158 105.852 48.9791 105.852 49.0107C105.82 49.0107 105.725 49.0423 105.567 49.0423H103.858V45.815C103.858 45.7201 103.827 45.6252 103.764 45.5619C103.7 45.467 103.574 45.4354 103.479 45.4354H102.941C102.814 45.4354 102.719 45.467 102.656 45.5619C102.593 45.6252 102.53 45.7201 102.53 45.815V51.1306C102.53 51.2888 102.53 51.447 102.498 51.5103C102.466 51.6052 102.435 51.6368 102.371 51.6685C102.34 51.7318 102.245 51.7318 102.15 51.7634C102.023 51.7634 101.897 51.7634 101.739 51.7634H101.612C101.327 51.7634 101.232 51.9532 101.232 52.1114V52.6177C101.232 52.8075 101.359 52.9341 101.58 52.9974C101.644 52.9974 101.739 52.9974 101.802 52.9974C101.865 52.9974 101.897 52.9974 101.96 52.9974C102.34 52.9974 102.656 52.9657 102.909 52.8708C103.226 52.7759 103.447 52.5544 103.605 52.2696C103.7 52.1114 103.764 51.9216 103.795 51.7001C103.827 51.5103 103.827 51.2888 103.827 51.0357V50.3712H105.251C105.377 50.3712 105.535 50.3712 105.662 50.3712C105.82 50.3712 105.978 50.3396 106.105 50.3396C106.231 50.3396 106.358 50.308 106.485 50.308C106.611 50.308 106.706 50.2763 106.801 50.2447C106.928 50.1814 107.022 50.1181 107.054 50.0232C107.117 49.9599 107.117 49.865 107.149 49.7701C107.181 49.6751 107.181 49.5802 107.181 49.4537C107.212 49.3271 107.212 49.2322 107.212 49.1056C107.212 48.9791 107.212 48.8525 107.212 48.7259V41.8916C107.212 41.7967 107.181 41.7018 107.117 41.6385C107.022 41.5436 106.928 41.512 106.833 41.512Z" fill="#2B2A29"/>
<path d="M109.712 41.4805H109.174C109.047 41.4805 108.953 41.5437 108.889 41.607C108.826 41.702 108.763 41.7969 108.763 41.8918V49.9601C108.763 50.0866 108.826 50.1499 108.889 50.2448C108.953 50.3397 109.047 50.3714 109.174 50.3714H109.712C109.838 50.3714 109.933 50.3397 110.028 50.2448C110.092 50.1499 110.123 50.055 110.123 49.9601V41.8918C110.123 41.7969 110.092 41.702 109.997 41.6387C109.933 41.5437 109.838 41.4805 109.712 41.4805Z" fill="#2B2A29"/>
<path d="M116.831 52.9025C116.768 52.8393 116.641 52.8076 116.546 52.8076H116.135C116.008 52.8076 115.913 52.8393 115.818 52.9025C115.724 52.9658 115.692 53.0924 115.692 53.2189V53.7885C115.692 53.8834 115.724 53.9783 115.818 54.0732C115.882 54.1365 116.008 54.1998 116.135 54.1998H116.546C116.641 54.1998 116.736 54.1681 116.831 54.0732C116.958 53.9783 116.989 53.8517 116.989 53.7885V53.2189C116.989 53.0924 116.926 52.9658 116.831 52.9025Z" fill="#2B2A29"/>
<path d="M118.666 52.9025C118.571 52.8393 118.476 52.8076 118.381 52.8076H117.938C117.843 52.8076 117.749 52.8393 117.654 52.9025C117.559 52.9658 117.527 53.0924 117.527 53.2189V53.7885C117.527 53.8834 117.559 54.0099 117.654 54.0732C117.749 54.1365 117.843 54.1998 117.938 54.1998H118.381C118.508 54.1998 118.603 54.1365 118.666 54.0732C118.761 54.0099 118.824 53.8834 118.824 53.7885V53.2189C118.824 53.0924 118.761 52.9658 118.666 52.9025Z" fill="#2B2A29"/>
<path d="M126.355 51.0674H125.848C125.753 51.0674 125.659 51.099 125.564 51.1623C125.469 51.2572 125.405 51.3521 125.405 51.4787V52.1115C125.405 52.2064 125.469 52.333 125.564 52.3963C125.627 52.4912 125.753 52.5228 125.848 52.5228H126.355C126.45 52.5228 126.545 52.4912 126.639 52.3963C126.734 52.333 126.798 52.2064 126.798 52.1115V51.4787C126.798 51.3521 126.734 51.2572 126.639 51.1623C126.545 51.099 126.45 51.0674 126.355 51.0674Z" fill="#2B2A29"/>
<path d="M132.778 43.8534C132.873 43.8534 132.999 43.8218 133.062 43.7585C133.157 43.6636 133.189 43.5686 133.189 43.4421V42.8409C133.189 42.7144 133.157 42.5878 133.062 42.5245C132.999 42.4296 132.873 42.3979 132.778 42.3979H132.271C132.176 42.3979 132.082 42.4296 131.987 42.5245C131.892 42.5878 131.828 42.7144 131.828 42.8409V43.4421C131.828 43.5686 131.892 43.6636 131.987 43.7585C132.05 43.8218 132.176 43.8534 132.271 43.8534H132.778Z" fill="#2B2A29"/>
<path d="M134.423 48.0615V48.2513C134.423 48.4412 134.423 48.5994 134.423 48.7259C134.391 48.8841 134.391 48.9474 134.391 49.0107C134.36 49.0107 134.36 49.0423 134.36 49.0423C134.36 49.0423 134.328 49.0423 134.296 49.0423H130.626C130.468 49.0423 130.341 49.0423 130.215 49.0423V46.606C130.341 46.5111 130.5 46.4478 130.658 46.3846C130.879 46.3213 131.069 46.258 131.291 46.2264C131.512 46.1631 131.702 46.1314 131.892 46.1314C132.113 46.0998 132.271 46.0998 132.398 46.0998C132.746 46.0998 133.062 46.1314 133.316 46.1947C133.569 46.258 133.758 46.3529 133.948 46.5111C134.107 46.6377 134.233 46.8275 134.296 47.0806C134.391 47.3338 134.423 47.6818 134.423 48.0615ZM134.898 45.5303C134.644 45.2772 134.296 45.0873 133.885 44.9608C133.505 44.8658 133.031 44.8025 132.556 44.8025C132.398 44.8025 132.24 44.8025 132.05 44.8342C131.828 44.8342 131.607 44.8658 131.354 44.9291C131.132 44.9608 130.879 45.024 130.626 45.119C130.468 45.1822 130.341 45.2455 130.215 45.3088V41.8916C130.215 41.7967 130.183 41.7018 130.088 41.6069C130.025 41.5436 129.93 41.512 129.803 41.512H129.266C129.139 41.512 129.044 41.5436 128.981 41.6385C128.918 41.7018 128.886 41.7967 128.886 41.8916V49.0423H127.525C127.462 49.0423 127.399 49.0423 127.304 49.0107C127.209 49.0107 127.146 49.0107 127.051 48.9791C126.987 48.9791 126.924 48.9474 126.861 48.9158C126.861 48.9158 126.829 48.9158 126.829 48.8841V45.815C126.829 45.7201 126.798 45.6252 126.703 45.5619C126.639 45.467 126.544 45.4354 126.418 45.4354H125.912C125.785 45.4354 125.69 45.467 125.627 45.5619C125.564 45.6252 125.5 45.7201 125.5 45.815V48.7892C125.5 48.8841 125.5 48.8841 125.469 48.8841C125.437 48.9474 125.405 48.9474 125.342 48.9791C125.279 49.0107 125.184 49.0107 125.121 49.0107C125.026 49.0423 124.962 49.0423 124.899 49.0423H123.918C123.665 49.0423 123.57 49.0107 123.57 48.9791C123.57 48.9791 123.507 48.9474 123.507 48.7892V46.0682C123.507 45.9416 123.475 45.8467 123.412 45.7834C123.349 45.7518 123.286 45.7201 123.191 45.6885C122.969 45.6252 122.748 45.5936 122.463 45.5619C122.21 45.5303 121.957 45.5303 121.704 45.5303C120.849 45.5303 120.185 45.7201 119.71 46.1314C119.204 46.5111 118.951 47.1439 118.951 47.9982V50.0548C118.951 50.1814 118.951 50.3396 118.951 50.4978C118.919 50.5927 118.919 50.7509 118.919 50.8775C118.793 50.9091 118.666 50.9091 118.508 50.9408C118.286 50.9408 118.065 50.9408 117.843 50.9408C117.274 50.9408 116.831 50.8775 116.546 50.7509C116.23 50.5927 116.008 50.4029 115.85 50.1814C115.692 49.9599 115.597 49.7068 115.565 49.3904C115.502 49.074 115.47 48.6943 115.47 48.3463C115.47 48.2197 115.502 48.0615 115.502 47.8717C115.534 47.6818 115.534 47.492 115.565 47.3021C115.565 47.1756 115.534 47.049 115.47 46.9857C115.439 46.9224 115.344 46.8908 115.217 46.8908H114.743C114.521 46.8908 114.363 47.0174 114.331 47.2388C114.3 47.3654 114.268 47.492 114.268 47.6185C114.236 47.7451 114.236 47.9033 114.236 48.0299C114.205 48.1564 114.205 48.283 114.205 48.4095C114.205 48.5045 114.173 48.5994 114.173 48.6943C114.173 49.2005 114.236 49.7068 114.363 50.1181C114.458 50.5611 114.679 50.9724 114.933 51.2888C115.217 51.6052 115.597 51.8267 116.072 52.0165C116.515 52.1747 117.116 52.2696 117.812 52.2696C118.16 52.2696 118.54 52.238 118.888 52.238C119.236 52.2064 119.552 52.1747 119.837 52.1114C120.09 52.0798 120.216 51.9216 120.216 51.7001C120.216 51.6052 120.248 51.4786 120.248 51.3521V50.9091C120.248 50.7509 120.248 50.6244 120.248 50.4978V48.0615C120.248 47.8084 120.28 47.5869 120.343 47.4287C120.406 47.2705 120.501 47.1439 120.596 47.049C120.723 46.9541 120.849 46.8908 121.007 46.8592C121.197 46.8275 121.387 46.7959 121.64 46.7959C121.767 46.7959 121.893 46.7959 121.988 46.7959C122.052 46.7959 122.115 46.8275 122.21 46.8275V49.0107C122.21 49.5169 122.336 49.865 122.558 50.0865C122.779 50.2763 123.159 50.3712 123.697 50.3712H124.741C124.962 50.3712 125.216 50.3396 125.5 50.308C125.722 50.2447 125.943 50.1814 126.133 50.0548C126.323 50.1814 126.513 50.2447 126.766 50.308C127.051 50.3396 127.304 50.3712 127.557 50.3712H132.999C133.252 50.3712 133.505 50.3712 133.79 50.3712H134.518C134.771 50.3396 134.929 50.3396 135.056 50.3396C135.246 50.308 135.372 50.2447 135.467 50.1181C135.53 50.0548 135.594 49.9599 135.625 49.8333C135.657 49.7384 135.689 49.6119 135.689 49.4537C135.72 49.2955 135.72 49.1689 135.72 49.0107C135.752 48.8525 135.752 48.6943 135.752 48.5361C135.752 48.3779 135.752 48.2513 135.752 48.1248V47.9033C135.752 47.3654 135.689 46.8908 135.53 46.4795C135.404 46.0998 135.182 45.7834 134.898 45.5303Z" fill="#2B2A29"/>
<path d="M143.535 51.0674H143.061C142.966 51.0674 142.839 51.099 142.776 51.1623C142.681 51.2572 142.618 51.3521 142.618 51.4787V52.1115C142.618 52.2064 142.681 52.333 142.744 52.3963C142.839 52.4912 142.934 52.5228 143.061 52.5228H143.535C143.662 52.5228 143.757 52.4912 143.852 52.3963C143.947 52.333 143.978 52.2064 143.978 52.1115V51.4787C143.978 51.3521 143.947 51.2572 143.852 51.1623C143.757 51.099 143.662 51.0674 143.535 51.0674Z" fill="#2B2A29"/>
<path d="M138.156 47.4921C138.156 47.0175 138.283 46.6694 138.536 46.4163C138.789 46.1632 139.169 46.0366 139.612 46.0366C139.77 46.0366 139.96 46.0366 140.087 46.0682C140.181 46.0682 140.276 46.0682 140.371 46.0682V49.0424H139.422C138.979 49.0424 138.631 48.9475 138.441 48.7577C138.251 48.5362 138.156 48.1881 138.156 47.7135V47.4921ZM144.833 45.8151C144.833 45.7202 144.801 45.6253 144.706 45.5304C144.643 45.4671 144.548 45.4354 144.421 45.4354H143.883C143.757 45.4354 143.662 45.4671 143.599 45.562C143.535 45.6253 143.504 45.7202 143.504 45.8151C143.504 46.1315 143.504 46.3846 143.535 46.6378C143.535 46.8909 143.535 47.1124 143.535 47.3655V48.8209C143.535 48.9159 143.504 48.9791 143.504 49.0108C143.472 49.0108 143.377 49.0424 143.187 49.0424H141.669V45.3405C141.669 45.2456 141.637 45.1507 141.605 45.0874C141.542 45.0241 141.479 44.9925 141.384 44.9608C141.162 44.8976 140.909 44.8659 140.624 44.8343C140.34 44.8026 140.023 44.771 139.738 44.771C138.821 44.771 138.093 45.0241 137.619 45.5304C137.112 46.0366 136.859 46.7011 136.859 47.5553V47.8085C136.859 48.6627 137.081 49.2956 137.524 49.7385C137.967 50.1498 138.599 50.3713 139.39 50.3713H140.34V50.6561C140.34 50.8776 140.308 51.0674 140.213 51.2256C140.15 51.3522 140.055 51.4787 139.897 51.542C139.77 51.6369 139.58 51.7002 139.359 51.7319C139.137 51.7635 138.853 51.7635 138.568 51.7635C138.441 51.7635 138.283 51.7635 138.093 51.7635C137.903 51.7635 137.745 51.7635 137.619 51.7635C137.397 51.7635 137.239 51.8901 137.239 52.1115V52.5861C137.239 52.6811 137.271 52.776 137.334 52.8393C137.365 52.9025 137.46 52.9342 137.587 52.9658C137.619 52.9658 137.682 52.9658 137.808 52.9658C137.903 52.9975 137.998 52.9975 138.125 52.9975H138.473C138.599 52.9975 138.694 52.9975 138.789 52.9975C139.169 52.9975 139.549 52.9658 139.897 52.9025C140.245 52.8076 140.561 52.6811 140.814 52.4912C141.067 52.333 141.257 52.0799 141.415 51.7635C141.574 51.4471 141.637 51.0674 141.669 50.6244V50.3713H142.934C143.061 50.3713 143.187 50.3713 143.345 50.3713C143.472 50.3713 143.63 50.3397 143.757 50.3397C143.915 50.3397 144.01 50.308 144.136 50.308C144.263 50.308 144.358 50.2764 144.421 50.2448C144.548 50.1815 144.643 50.1182 144.706 50.0549C144.738 49.96 144.769 49.8651 144.801 49.7702C144.833 49.5803 144.833 49.3588 144.833 49.0108C144.833 48.726 144.833 48.378 144.833 48.0299V46.9542C144.833 46.796 144.833 46.6378 144.833 46.4479V45.8151Z" fill="#2B2A29"/>
<path d="M147.395 42.0815H146.826C146.731 42.0815 146.604 42.1448 146.541 42.2081C146.478 42.303 146.415 42.3979 146.415 42.4929V49.96C146.415 50.0865 146.478 50.1814 146.541 50.2447C146.604 50.3396 146.731 50.3713 146.826 50.3713H147.395C147.49 50.3713 147.585 50.3396 147.68 50.2447C147.743 50.1498 147.775 50.0549 147.775 49.96V42.4929C147.775 42.3979 147.743 42.303 147.68 42.2397C147.585 42.1448 147.49 42.0815 147.395 42.0815Z" fill="#2B2A29"/>
<path d="M147.807 40.7843H147.079C147.079 40.7526 147.047 40.7526 147.047 40.6893C146.984 40.6261 146.984 40.5311 146.984 40.4046C146.984 40.2147 147.016 40.0565 147.395 40.0565C147.427 40.0565 147.649 40.0882 147.743 40.0882C147.933 40.0882 148.06 39.9616 148.06 39.7718V39.6136C148.06 39.487 147.997 39.3604 147.807 39.2972C147.712 39.2655 147.649 39.2655 147.554 39.2655C147.49 39.2655 147.395 39.2339 147.332 39.2339C146.952 39.2339 146.636 39.3288 146.446 39.5186C146.193 39.7085 146.098 39.9616 146.098 40.3413C146.098 40.4679 146.098 40.5944 146.13 40.7526C146.161 40.7526 146.161 40.7843 146.161 40.8159C145.908 40.8475 145.877 41.0374 145.877 41.1007V41.2905C145.877 41.4487 145.972 41.6069 146.256 41.6069H147.807C147.902 41.6069 147.965 41.6069 148.028 41.5753C148.123 41.5436 148.186 41.4487 148.186 41.2905V41.1323C148.186 40.9741 148.092 40.7843 147.807 40.7843Z" fill="#2B2A29"/>
<path d="M170.43 51.0674H169.955C169.86 51.0674 169.733 51.099 169.67 51.1623C169.575 51.2572 169.512 51.3521 169.512 51.4787V52.1115C169.512 52.2064 169.575 52.333 169.67 52.3963C169.733 52.4912 169.86 52.5228 169.955 52.5228H170.43C170.556 52.5228 170.651 52.4912 170.746 52.3963C170.841 52.333 170.872 52.2064 170.872 52.1115V51.4787C170.872 51.3521 170.841 51.2572 170.746 51.1623C170.651 51.099 170.556 51.0674 170.43 51.0674Z" fill="#2B2A29"/>
<path d="M176.156 47.492C176.156 47.0174 176.251 46.6377 176.441 46.4162C176.631 46.1947 176.947 46.0682 177.359 46.0682C177.802 46.0682 178.086 46.1947 178.245 46.4162C178.435 46.6693 178.529 47.0174 178.529 47.492V47.9033C178.529 48.4095 178.435 48.7892 178.276 48.9791C178.086 49.1689 177.802 49.2955 177.359 49.2955C177.011 49.2955 176.758 49.2322 176.568 49.1373C176.378 49.0423 176.251 48.8525 176.188 48.5994C176.188 48.4095 176.156 48.2197 176.156 47.9982V47.492ZM177.359 44.8025C176.568 44.8025 175.935 45.024 175.492 45.4986C175.049 45.9416 174.828 46.5744 174.828 47.397V48.5045C174.828 48.5994 174.828 48.6943 174.828 48.7892C174.796 48.8209 174.796 48.8525 174.764 48.8841C174.701 48.9158 174.638 48.9474 174.574 48.9791C174.511 49.0107 174.448 49.0107 174.385 49.0107C174.29 49.0423 174.226 49.0423 174.195 49.0423H173.815C173.815 49.0423 173.815 49.0423 173.783 49.0423V49.0107L173.309 47.8717L173.182 47.5869C172.961 47.049 172.708 46.5744 172.455 46.258C172.201 45.8783 171.917 45.6252 171.6 45.4037C171.284 45.2139 170.967 45.0557 170.588 44.9924C170.113 44.8658 169.544 44.8658 168.942 44.8975C168.721 44.9291 168.531 44.9291 168.405 44.9924C168.246 44.9924 168.183 45.0557 168.12 45.119C168.088 45.1506 168.025 45.2455 168.025 45.3721V45.8467C168.025 45.9416 168.057 46.0365 168.151 46.0998C168.215 46.1314 168.31 46.1631 168.405 46.1631C168.436 46.1631 168.436 46.1631 168.468 46.1631C168.594 46.1631 168.753 46.1314 168.911 46.1314C169.101 46.1314 169.196 46.0998 169.259 46.0998C169.923 46.0998 170.461 46.258 170.841 46.5111C171.221 46.7642 171.537 47.1756 171.758 47.7135L172.328 49.0423H167.266C167.202 49.0423 167.107 49.0423 167.044 49.0107C166.949 49.0107 166.854 49.0107 166.791 48.9791C166.728 48.9791 166.664 48.9474 166.601 48.9158C166.569 48.9158 166.569 48.9158 166.569 48.8841V41.8916C166.569 41.7967 166.506 41.7018 166.443 41.6385C166.38 41.5436 166.285 41.512 166.158 41.512H165.62C165.494 41.512 165.399 41.5436 165.335 41.6069C165.272 41.7018 165.209 41.7967 165.209 41.8916V48.7892C165.209 48.8525 165.209 48.8841 165.177 48.8841C165.146 48.9474 165.114 48.9474 165.051 48.9791C164.987 49.0107 164.892 49.0107 164.829 49.0107C164.734 49.0423 164.671 49.0423 164.608 49.0423H164.007C163.943 49.0423 163.88 49.0423 163.817 49.0423C163.785 49.0423 163.69 49.0423 163.627 49.0423C163.532 49.0423 163.437 49.0107 163.374 49.0107C163.31 48.9791 163.216 48.9474 163.152 48.9158C163.152 48.9158 163.121 48.9158 163.121 48.8841V45.5303C163.121 45.4354 163.089 45.3404 163.026 45.2455C162.962 45.1822 162.836 45.1506 162.741 45.1506H162.203C162.077 45.1506 161.982 45.1822 161.918 45.2455C161.855 45.3404 161.823 45.4354 161.823 45.5303V48.8525C161.823 48.8841 161.792 48.9158 161.792 48.9474C161.728 48.9791 161.697 49.0107 161.634 49.0107C161.57 49.0423 161.507 49.0423 161.444 49.0423C161.349 49.074 161.254 49.074 161.191 49.074H161.064C160.874 49.074 160.684 49.0423 160.526 49.0107C160.4 49.0107 160.368 48.9791 160.336 48.9158V45.9732C160.336 45.8783 160.305 45.7834 160.21 45.6885C160.146 45.6252 160.052 45.5936 159.925 45.5936H159.419C159.324 45.5936 159.229 45.6252 159.134 45.6885C159.071 45.7834 159.007 45.8783 159.007 45.9732V48.8525C159.007 48.9158 159.007 48.9158 159.007 48.9474C158.976 48.9791 158.944 48.9791 158.881 49.0107C158.818 49.0107 158.754 49.0423 158.691 49.0423C158.596 49.074 158.533 49.074 158.47 49.074H158.216C158.153 49.074 158.09 49.074 157.995 49.0423C157.932 49.0423 157.837 49.0423 157.773 49.0107C157.679 49.0107 157.615 48.9791 157.552 48.9474C157.552 48.9474 157.552 48.9474 157.52 48.9158V46.3213C157.52 46.2264 157.489 46.1314 157.425 46.0365C157.362 45.9416 157.267 45.91 157.141 45.91H156.603C156.508 45.91 156.413 45.9416 156.318 46.0365C156.255 46.0998 156.223 46.1947 156.223 46.3213V50.0548C156.223 50.213 156.223 50.3396 156.223 50.4978C156.191 50.6244 156.191 50.7826 156.191 50.9091C156.097 50.9408 155.97 50.9408 155.875 50.9724C155.717 50.9724 155.59 50.9724 155.464 50.9724C154.894 50.9724 154.483 50.9091 154.166 50.7826C153.882 50.656 153.629 50.4662 153.502 50.2447C153.344 50.0548 153.217 49.7701 153.186 49.4537C153.122 49.1373 153.122 48.7892 153.122 48.4095C153.122 48.3463 153.122 48.283 153.122 48.1881C153.122 48.0931 153.122 47.9982 153.122 47.9033L153.154 47.5869C153.154 47.492 153.186 47.397 153.186 47.3338C153.217 47.1439 153.154 47.049 153.122 46.9857C153.059 46.9541 152.996 46.8908 152.838 46.8908H152.363C152.141 46.8908 151.983 47.0174 151.952 47.2388C151.92 47.3654 151.92 47.492 151.888 47.6502C151.888 47.7767 151.857 47.9349 151.857 48.0615C151.857 48.2197 151.825 48.3463 151.825 48.4728C151.825 48.5994 151.825 48.6943 151.825 48.7892C151.825 49.3271 151.888 49.8333 151.983 50.2763C152.11 50.6876 152.331 51.0673 152.616 51.3837C152.901 51.7001 153.281 51.9216 153.755 52.0798C154.23 52.238 154.799 52.3013 155.464 52.3013C155.717 52.3013 156.002 52.3013 156.286 52.2696C156.571 52.238 156.856 52.1747 157.141 52.1114C157.236 52.0798 157.299 52.0482 157.362 52.0165C157.425 51.9532 157.489 51.8583 157.489 51.7001C157.52 51.5419 157.52 51.2888 157.52 50.9724C157.52 50.8142 157.52 50.4978 157.52 50.308C157.584 50.308 157.647 50.308 157.679 50.3396C157.868 50.3396 157.995 50.3712 158.121 50.3712H158.311C158.628 50.3712 158.881 50.3396 159.134 50.2763C159.355 50.213 159.545 50.1498 159.703 50.0548C159.862 50.1498 160.052 50.2447 160.241 50.308C160.463 50.3396 160.716 50.3712 161.001 50.3712H161.191C161.444 50.3712 161.697 50.3396 161.95 50.308C162.14 50.2447 162.33 50.1814 162.488 50.0548C162.678 50.1814 162.899 50.2447 163.121 50.308C163.405 50.3396 163.659 50.3712 163.848 50.3712H164.481C164.703 50.3712 164.956 50.3396 165.241 50.308C165.462 50.2447 165.684 50.1814 165.873 50.0548C165.937 50.0865 166.032 50.1498 166.095 50.1814C166.221 50.213 166.38 50.2763 166.506 50.308C166.633 50.308 166.759 50.3396 166.886 50.3396C167.044 50.3712 167.171 50.3712 167.266 50.3712H174.005C174.353 50.3712 174.638 50.3396 174.922 50.2447C175.144 50.1814 175.334 50.0865 175.46 49.9283C175.65 50.1181 175.903 50.2447 176.156 50.3712C176.504 50.4662 176.916 50.5294 177.359 50.5294C178.213 50.5294 178.846 50.308 179.257 49.865C179.637 49.4537 179.827 48.7892 179.827 47.9666V47.397C179.827 46.5744 179.637 45.91 179.226 45.467C178.783 45.024 178.181 44.8025 177.359 44.8025Z" fill="#2B2A29"/>
<path d="M65.3523 38.2847C65.9534 36.9242 66.3964 35.5004 66.6811 34.0449C67.0608 35.184 67.3139 36.1964 67.4722 37.2089C67.6303 38.1898 67.7886 39.2972 67.4722 40.3413C67.4722 40.4046 67.4405 40.4995 67.4089 40.5628C67.0925 41.4804 66.5229 42.3663 65.9534 43.1573C66.1433 41.7651 65.9534 40.1515 65.3523 38.2847ZM0.110057 57.5536H0.204978L0.236618 57.522C0.299899 57.4587 0.39482 57.3954 0.48974 57.3638C0.616301 57.2372 0.774503 57.1423 0.932704 57.0474C1.59715 56.5728 2.32487 56.1298 3.0526 55.7185C3.14752 55.6552 12.4498 50.0865 26.1816 50.0865C31.2441 50.0865 36.3065 50.8459 41.2424 52.333L41.4322 52.3646C43.3306 52.9658 45.3556 53.3455 47.3806 53.4404C47.7919 53.472 48.1716 53.5037 48.5513 53.5037C50.8927 53.5037 53.8352 53.2189 57.9484 51.1939C57.9484 51.1939 58.6445 50.8142 59.6254 50.1814C63.8652 47.4287 66.7761 44.2647 68.2632 40.7526C68.3264 40.6894 68.3581 40.6261 68.3581 40.5628C68.6428 39.8667 68.896 39.139 69.0542 38.4429C69.0858 38.3796 69.4022 37.0191 69.3073 34.5828C69.1807 32.3047 68.6745 28.6661 66.7761 24.0782L66.7444 24.015C66.2065 22.7493 65.6054 21.4837 64.9409 20.2181C64.9093 20.1548 64.7511 19.8384 64.5612 19.4588C64.4347 19.2373 64.3081 19.0158 64.2132 18.7943L63.8335 18.0982C61.0492 12.5928 57.8852 6.35969 59.9734 0.569525C59.9734 0.537884 60.0051 0.506244 60.0051 0.506244V0.474604V0.442964C60.0051 0.411323 60.0051 0.411323 60.0051 0.379683C60.0051 0.379683 60.0051 0.348043 59.9734 0.348043C59.9734 0.316403 59.9734 0.316403 59.9734 0.316403V0.284762C59.9734 0.253122 59.9418 0.253122 59.9418 0.221482C59.9418 0.221482 59.9418 0.189842 59.9101 0.189842C59.9101 0.158201 59.9101 0.158201 59.9101 0.158201L59.7203 0.0316403C59.6886 0.0316403 59.6886 0 59.6886 0C59.657 0 59.657 0 59.6254 0L59.5937 0.126561V0H59.5621C59.5304 0 59.5304 0 59.4988 0H59.4672L59.4039 0.0316403C59.4039 0.0316403 59.3722 0.0316403 59.3406 0.0632805C59.3406 0.0632805 59.309 0.0632805 59.309 0.0949208L59.2773 0.126561C51.8102 6.96086 49.4688 16.6111 53.2657 24.6478C53.9301 26.0399 54.8477 27.6852 55.8602 29.4254C56.6195 30.7543 57.4738 32.2414 58.2648 33.7285C53.7086 42.9042 43.9634 46.6061 36.8444 49.2639L36.4963 49.074C36.2432 48.8842 35.9268 48.6627 35.9268 48.6627C32.8894 46.5428 29.9468 44.676 24.2199 43.1889C21.9418 42.5878 19.3473 42.2397 17.5122 42.2397C16.9743 42.2397 16.4997 42.2714 16.12 42.3347C15.9302 42.3347 15.8036 42.3663 15.6771 42.3979C15.5505 42.4296 15.1075 42.5245 15.1075 42.8725V42.9991L15.4556 42.9675C15.9935 42.9675 16.4997 42.9675 17.0376 42.9675C19.6637 43.0624 21.9735 43.537 24.5996 44.2647C28.2066 45.2456 31.1491 46.7327 33.0159 47.8401C26.4031 45.2772 21.0559 44.7077 17.6388 44.7077C13.6521 44.7077 11.3423 45.467 11.3107 45.467C10.4881 45.7202 10.1717 45.9733 10.2349 46.2897L10.2666 46.4163L10.3931 46.353C10.4248 46.353 12.4814 45.6569 16.4048 45.6569C19.6954 45.6569 24.916 46.1631 31.7503 48.4412C28.7128 47.6502 25.1691 46.9858 20.961 46.9858C19.7587 46.9858 18.5247 47.0174 17.2907 47.144C16.8161 47.1756 16.2782 47.2389 15.7403 47.3022C11.6904 47.8084 7.9252 49.1057 5.99514 50.1498C5.20414 50.5611 4.95102 50.8459 5.04594 51.099L5.07758 51.2256L5.20414 51.1939C5.42562 51.099 5.71038 51.0041 6.02678 50.8775C6.62795 50.6244 7.38731 50.308 8.27324 50.0549C12.4181 48.7893 16.6263 48.1248 20.7711 48.0615C20.8977 48.0615 21.0243 48.0615 21.1508 48.0615C24.1883 48.0615 27.4789 48.4412 31.4023 49.2955C29.1242 49.074 27.3207 49.0424 27.289 49.0424H27.1941C26.8461 49.0424 26.498 49.0424 26.1816 49.0424C25.359 49.0424 24.7578 49.074 24.1883 49.074C21.5621 49.2006 18.9676 49.517 16.4364 49.9916C12.8611 50.656 9.57049 51.6369 6.62795 52.9341C5.0143 53.6302 3.84361 54.2314 2.76784 54.8958C2.10339 55.2755 1.53387 55.6868 0.964344 56.0982L0.837783 56.2247C0.616301 56.3829 0.39482 56.5411 0.236618 56.7626C0.141698 56.8892 0.046777 57.0157 0.0151367 57.2056C0.0151367 57.2056 0.0151367 57.4271 0.0784172 57.522L0.110057 57.5536ZM62.2515 46.5112C62.5679 45.4354 62.6312 44.2331 62.5046 42.9042C63.3906 41.7968 64.1499 40.6577 64.7827 39.4554C64.9726 40.1515 65.0675 40.7843 65.1308 41.3538C65.1941 42.303 65.1308 43.1573 64.9093 43.9167C64.8144 44.2014 64.6878 44.5495 64.498 44.8659C64.2765 45.2139 63.9917 45.4987 63.6753 45.8151L63.5804 45.91C63.264 46.2264 62.9476 46.5428 62.6312 46.8276C62.3781 47.0491 62.1249 47.2705 61.8718 47.492C62.03 47.1756 62.1566 46.8276 62.2515 46.5112ZM41.4639 51.0357L41.8119 51.0674C42.2865 51.099 44.1216 51.1939 45.2291 51.1623C46.2415 51.099 47.3806 51.0357 48.3614 50.9092C49.6903 50.6877 53.2024 50.1498 57.1574 47.6502C58.2965 46.9225 60.0051 45.6569 61.682 43.8218C61.7136 44.7077 61.6187 45.5303 61.3972 46.2581C61.1441 47.144 60.6695 47.935 60.0367 48.6311C59.1508 49.5803 57.9168 50.1182 56.7461 50.656L56.6512 50.7193C55.3223 51.3205 54.12 51.7318 52.9493 51.9849C51.4938 52.3013 49.9118 52.4595 48.14 52.4595C46.3681 52.4595 44.438 52.1748 42.0967 51.542C42.0967 51.542 41.1475 51.2889 39.6287 50.8459C40.1983 50.9092 40.8311 50.9725 41.4639 51.0357ZM55.5121 44.2647C57.5371 42.7143 59.2457 40.9108 60.6062 38.9175C61.1125 40.2464 61.4289 41.512 61.5871 42.6194C59.7203 44.8026 57.6953 46.2581 56.6828 46.8909C52.886 49.2955 49.5005 49.8334 48.2349 50.0232C47.3173 50.1814 46.1783 50.2447 45.1974 50.2764C44.1216 50.308 42.3814 50.2131 41.8752 50.1814L39.7237 50.0232C39.8819 49.9916 40.0401 49.9916 40.2299 49.9916C46.0201 49.517 51.304 47.5237 55.5121 44.2647ZM39.3756 49.2322C46.6529 46.4795 54.5946 42.6194 58.7394 34.7094C59.3406 35.88 59.8152 36.9242 60.2265 37.905C58.866 40.0566 57.0941 41.955 54.9743 43.6003C50.7661 46.8276 45.5138 48.726 39.3756 49.2322ZM56.841 4.17651C53.8352 10.2831 54.468 14.5862 54.7211 16.4529L54.7528 16.6428C55.3223 20.5662 56.9992 23.4454 58.1066 25.3438L58.6762 26.2931C59.1191 27.0524 59.5937 27.8751 60.0683 28.6661L60.0051 28.9508C59.6886 30.2481 59.2457 31.5137 58.7078 32.7477C58.0117 31.4504 57.284 30.1532 56.6195 28.9825C55.6071 27.2739 54.6895 25.6286 54.0567 24.2997C50.9876 17.7818 52.095 10.1249 56.9992 3.86011L57.0309 3.79683C56.9676 3.95503 56.9043 4.08159 56.841 4.17651ZM58.7394 18.2248C59.4672 20.0916 60.1633 21.2939 61.0492 22.8126C60.891 24.3314 60.6695 25.8817 60.3531 27.4005C60.0367 26.9259 59.7519 26.4196 59.4672 25.9134L58.866 24.9009C57.7902 23.0657 56.1449 20.2814 55.6387 16.5479L55.6071 16.3264C55.3539 14.5545 54.7528 10.4413 57.6004 4.65112C57.6004 4.61948 57.6004 4.61948 57.6004 4.61948C56.6195 9.39716 57.4738 14.8709 58.7394 18.2248ZM61.1441 21.2306C60.5746 20.2498 60.1 19.2373 59.5621 17.9084C58.3598 14.7444 57.5371 9.52372 58.423 4.96752C58.4863 7.34054 59.1191 9.9034 60.448 13.0041C61.0808 14.9342 61.3339 18.0033 61.1441 21.2306ZM63.8652 26.0083C63.1374 24.6794 62.5679 23.6669 62.03 22.7493L61.9351 22.5911C62.1249 20.3447 62.1249 18.1615 61.9351 16.2315C62.3148 16.9908 62.6945 17.7185 63.0742 18.4779L63.2007 18.731C63.6753 19.9966 64.055 22.8126 63.8652 26.0083ZM63.7386 27.6219C63.5488 29.1407 63.264 30.6278 62.8527 32.0832C62.3148 30.9442 61.7136 29.8051 60.9859 28.5395C61.3339 27.0524 61.5871 25.5653 61.7769 24.0782C62.3148 24.9958 62.9792 26.1665 63.7386 27.6219ZM64.4347 28.9825C64.9409 30.0266 65.5421 31.2289 66.0483 32.4313C65.9851 32.8109 65.9218 33.2223 65.8585 33.6336C65.6687 34.7726 65.3523 35.9433 64.9093 37.0507C64.8776 36.9242 64.846 36.8293 64.8144 36.7343L64.6878 36.4496C64.2765 35.3422 63.8652 34.298 63.3906 33.2539C63.8335 31.8934 64.1816 30.4379 64.4347 28.9825ZM66.2698 30.8176C65.9218 30.0582 65.5421 29.204 65.0675 28.2864C64.9093 28.0016 64.7511 27.7169 64.6245 27.4321C64.846 25.4388 64.8144 23.3505 64.6245 21.4837C65.1308 22.4646 65.5421 23.4138 65.9534 24.3314C66.5546 26.0716 66.6495 27.8751 66.2698 30.8176ZM62.3148 41.7019C62.0933 40.5628 61.7136 39.3288 61.2074 37.9999C61.9035 36.8925 62.473 35.6902 62.9476 34.4562C63.2956 35.2156 63.5804 35.975 63.8652 36.766L63.9917 37.0507C64.1183 37.4304 64.2765 37.8417 64.403 38.2531C63.8652 39.4554 63.1374 40.6261 62.3148 41.7019ZM59.2457 33.7285C59.8152 32.4945 60.2898 31.1656 60.6695 29.7735C61.3656 31.0074 61.9035 32.1465 62.4413 33.3172C61.9984 34.5828 61.4605 35.8168 60.7961 36.9875C60.3531 35.975 59.8469 34.8992 59.2457 33.7285ZM68.3264 37.0191C68.105 35.6586 67.662 34.1082 66.9343 32.368C67.1874 30.7543 67.3139 29.4254 67.3456 28.318C68.1999 31.2922 68.5163 34.2348 68.3264 37.0191Z" fill="#BA9E66"/>
</g>
<defs>
<clipPath id="clip0_0_38">
<rect width="180" height="57.5536" fill="white"/>
</clipPath>
</defs>
</svg>
