<svg width="35" height="35" viewBox="0 0 35 35" fill="none" xmlns="http://www.w3.org/2000/svg">
<path d="M17.5 0C7.83649 0 0 7.83649 0 17.5C0 27.1635 7.83649 35 17.5 35C27.1635 35 35 27.1635 35 17.5C35 7.83649 27.1635 0 17.5 0ZM27.4882 21.6429C27.4396 22.7127 27.2695 23.443 27.0212 24.0822C26.4991 25.4321 25.4321 26.4991 24.0822 27.0212C23.4433 27.2695 22.7127 27.4393 21.6432 27.4882C20.5716 27.5371 20.2293 27.5488 17.5003 27.5488C14.771 27.5488 14.4289 27.5371 13.357 27.4882C12.2876 27.4393 11.557 27.2695 10.918 27.0212C10.2472 26.7688 9.64 26.3734 9.13799 25.862C8.6269 25.3602 8.23143 24.7528 7.97908 24.0822C7.73075 23.4433 7.56065 22.7127 7.51205 21.6432C7.46265 20.5714 7.45117 20.229 7.45117 17.5C7.45117 14.771 7.46265 14.4286 7.51178 13.357C7.56038 12.2873 7.73021 11.557 7.97855 10.9177C8.23089 10.2472 8.62663 9.63974 9.13799 9.13799C9.63974 8.62663 10.2472 8.23116 10.9177 7.97882C11.557 7.73048 12.2873 7.56065 13.357 7.51178C14.4286 7.46292 14.771 7.45117 17.5 7.45117C20.229 7.45117 20.5714 7.46292 21.6429 7.51205C22.7127 7.56065 23.443 7.73048 24.0822 7.97855C24.7528 8.23089 25.3602 8.62663 25.8623 9.13799C26.3734 9.64 26.7691 10.2472 27.0212 10.9177C27.2698 11.557 27.4396 12.2873 27.4885 13.357C27.5373 14.4286 27.5488 14.771 27.5488 17.5C27.5488 20.229 27.5373 20.5714 27.4882 21.6429Z" fill="white"/>
</svg>
