<svg width="41" height="40" viewBox="0 0 41 40" fill="none" xmlns="http://www.w3.org/2000/svg">
<path d="M20.0112 2.13914e-07C12.0071 -0.00116645 4.77308 4.76992 1.62267 12.128L1.37333 12.2107L1.47 12.5007C-2.678 22.7312 2.25275 34.3872 12.4832 38.5352C14.8727 39.5041 17.4269 40.0014 20.0053 40C31.051 40.0017 40.0067 31.0487 40.0083 20.003C40.01 8.95733 31.057 0.00158355 20.0112 2.13914e-07ZM35.699 30.0837L34.672 29.0573V26.6667C34.6732 26.5635 34.6503 26.4615 34.6053 26.3687L32.0053 21.176V18.6667C32.0053 18.4438 31.8941 18.2357 31.7087 18.112L29.7087 16.7787C29.5519 16.674 29.3582 16.6406 29.1753 16.6867L26.726 17.2987L22.612 15.5333L22.046 11.568L23.6147 10H26.982L28.1153 11.7033C28.2177 11.8565 28.3789 11.9606 28.5607 11.9907L32.5607 12.6573C32.6678 12.6753 32.7777 12.6666 32.8807 12.632L36.5647 11.404C39.6546 17.3336 39.3241 24.4653 35.699 30.0837ZM32.9493 6.56933L31.8653 7.292L28.8433 6.68733L26.8827 6.03467C26.7627 5.99392 26.6335 5.98875 26.5107 6.02L24.032 6.63933L22.9453 6.27733L23.7507 4.66667H26.0053C26.1087 4.66675 26.2107 4.64283 26.3033 4.59667L28.61 3.44333C30.1985 4.2725 31.6598 5.32517 32.9493 6.56933ZM12.7033 2.822L14.3033 3.88867C14.382 3.941 14.4708 3.976 14.564 3.99133L17.7947 4.53L17.4793 5.47333L15.796 6.03533C15.6452 6.0855 15.5173 6.18783 15.4353 6.324L13.5207 9.51467L10.4453 11.36L5.912 12.0073C5.58342 12.0537 5.33908 12.3348 5.33867 12.6667V14.6667C5.33867 14.8435 5.409 15.013 5.534 15.138L6.672 16.276V17.4213L3.89867 15.572L2.89267 12.554C4.80667 8.18067 8.31475 4.70067 12.7033 2.822ZM10.8053 24.68L7.792 24.0767L6.672 21.8427V20.276L9.156 17.792L10.0753 19.6313C10.1882 19.8573 10.4193 20.0001 10.672 20H14.9613L16.7673 23.01C16.8878 23.2106 17.1047 23.3332 17.3387 23.3333H19.192L18.7253 25.6713L16.2013 28.1953C16.0761 28.3202 16.0056 28.4897 16.0053 28.6667V30.3333L13.6053 32.1333C13.4375 32.2592 13.3387 32.4568 13.3387 32.6667V35.0747L12.5093 34.8L11.3387 31.872V25.3333C11.3387 25.0165 11.1157 24.7433 10.8053 24.68ZM8.80133 34.9284C2.51558 30.2127 -0.142668 22.0647 2.15267 14.5493L2.70667 16.2107C2.75333 16.3512 2.8455 16.4723 2.96867 16.5547L6.292 18.77L5.534 19.5287C5.409 19.6537 5.33867 19.8232 5.33867 20V22C5.33858 22.1034 5.3625 22.2054 5.40867 22.298L6.742 24.9647C6.83433 25.1488 7.00658 25.28 7.20866 25.32L10.0087 25.8793V32C10.0086 32.0847 10.0247 32.1687 10.056 32.2473L11.3893 35.5807C11.4623 35.7627 11.6118 35.9035 11.798 35.9653L13.798 36.632C13.8648 36.6547 13.9348 36.6663 14.0053 36.6667C14.3735 36.6667 14.672 36.3682 14.672 36V33L17.072 31.2C17.2398 31.0741 17.3387 30.8765 17.3387 30.6667V28.9427L19.81 26.4713C19.9029 26.3782 19.9662 26.2597 19.992 26.1307L20.6587 22.7973C20.7308 22.4363 20.4967 22.0851 20.1356 22.0129C20.0927 22.0043 20.0491 22 20.0053 22H17.716L15.91 18.99C15.7895 18.7894 15.5727 18.6667 15.3387 18.6667H11.084L9.93866 16.3687C9.84275 16.1768 9.66041 16.0428 9.44866 16.0087C9.237 15.9721 9.02092 16.0419 8.87066 16.1953L8.00533 17.0573V16C8.00533 15.8232 7.935 15.6537 7.81 15.5287L6.672 14.3907V13.2447L10.7667 12.66C10.8546 12.6472 10.9392 12.6171 11.0153 12.5713L14.3487 10.5713C14.4422 10.5152 14.5205 10.4368 14.5767 10.3433L16.45 7.22133L18.216 6.632C18.4154 6.56658 18.5719 6.41017 18.6373 6.21067L19.304 4.21067C19.4195 3.86108 19.2297 3.484 18.8802 3.3685C18.8479 3.35783 18.8148 3.34967 18.7813 3.344L14.9227 2.70067L14.2447 2.24867C18.4399 0.883167 22.9837 1.05217 27.066 2.72533L25.848 3.33333H23.3387C23.0847 3.33192 22.8522 3.47492 22.7387 3.702L21.4053 6.36867C21.2411 6.69817 21.375 7.0985 21.7045 7.26275C21.7326 7.27675 21.7616 7.28875 21.7913 7.29867L23.7913 7.96533C23.9113 8.00608 24.0405 8.01125 24.1633 7.98L26.642 7.36067L28.458 7.96533C28.484 7.97467 28.5107 7.98183 28.538 7.98667L31.8713 8.65333C32.0447 8.68867 32.225 8.65317 32.372 8.55467L33.8893 7.54267C34.6361 8.37442 35.3072 9.27108 35.8947 10.222L32.6147 11.3153L29.0633 10.7233L27.89 8.96333C27.767 8.77892 27.5603 8.66775 27.3387 8.66667H23.3387C23.1618 8.66667 22.9923 8.737 22.8673 8.862L20.8673 10.862C20.7188 11.0104 20.6489 11.2202 20.6787 11.428L21.3453 16.0947C21.3789 16.3254 21.5306 16.5218 21.7453 16.6127L26.412 18.6127C26.5457 18.6706 26.6948 18.6825 26.836 18.6467L29.2167 18.0513L30.672 19.0233V21.3333C30.6708 21.4365 30.6937 21.5385 30.7387 21.6313L33.3387 26.824V29.3333C33.3387 29.5102 33.409 29.6797 33.534 29.8047L34.9287 31.2C28.7434 39.4444 17.0457 41.1138 8.80133 34.9284Z" fill="white"/>
</svg>
