<svg width="50" height="50" viewBox="0 0 50 50" fill="none" xmlns="http://www.w3.org/2000/svg">
<path fill-rule="evenodd" clip-rule="evenodd" d="M4.16633 24.9999C4.16633 13.4999 13.5205 4.16659 24.9997 4.16659L25.5825 4.1746C36.8134 4.48359 45.833 13.6948 45.833 24.9999C45.833 36.4791 36.4997 45.8333 24.9997 45.8333C13.5205 45.8333 4.16634 36.4791 4.16633 24.9999ZM29.1247 33.3333C29.7288 32.7083 29.7288 31.7291 29.1038 31.1249L22.958 24.9999L29.1038 18.8749C29.7288 18.2708 29.7288 17.2708 29.1247 16.6666C28.4997 16.0416 27.5205 16.0416 26.9163 16.6666L19.6455 23.8958C19.3538 24.1874 19.1872 24.5833 19.1872 24.9999C19.1872 25.4166 19.3538 25.8124 19.6455 26.1041L26.9163 33.3333C27.208 33.6458 27.6038 33.7916 27.9997 33.7916C28.4163 33.7916 28.8122 33.6458 29.1247 33.3333Z" fill="white"/>
</svg>
