<svg width="302" height="83" viewBox="0 0 302 83" fill="none" xmlns="http://www.w3.org/2000/svg">
<path d="M0 16.5898C0 8.28815 6.72979 1.55837 15.0314 1.55837H286.969C295.27 1.55837 302 8.28816 302 16.5898V65.9137C302 74.2153 295.27 80.9451 286.969 80.9451H15.0314C6.72979 80.9451 0 74.2153 0 65.9137V16.5898Z" fill="#307093"/>
<path d="M9.17444e-05 15.0314C9.17444e-05 6.72979 6.72988 0 15.0315 0H286.969C295.27 0 302 6.72979 302 15.0314V67.4723C302 75.7739 295.27 82.5037 286.969 82.5037H15.0315C6.72988 82.5037 9.17444e-05 75.7739 9.17444e-05 67.4723V15.0314Z" fill="#307093"/>
</svg>
