<svg width="40" height="40" viewBox="0 0 40 40" fill="none" xmlns="http://www.w3.org/2000/svg">
<path d="M13.125 15C10.7129 15 8.75 16.9629 8.75 19.375C8.9703 25.171 17.2806 25.1694 17.5 19.3749C17.5 16.9629 15.5371 15 13.125 15ZM13.125 22.5C11.402 22.5 10 21.098 10 19.375C10.1469 15.2391 16.1037 15.2401 16.25 19.3751C16.25 21.098 14.848 22.5 13.125 22.5Z" fill="white"/>
<path d="M35.625 33.75H31.784L27.3022 24.7864C26.9824 24.1473 26.3397 23.75 25.625 23.75H21.25V12.5H23.125C23.6837 12.5238 23.9718 11.7559 23.5363 11.4044C23.5364 11.4044 13.5364 2.65442 13.5364 2.65442C13.3008 2.44812 12.9492 2.44812 12.7136 2.65442L2.71362 11.4044C2.28369 11.7644 2.56149 12.5154 3.12503 12.5C3.125 12.5 5 12.5 5 12.5V36.25H3.125C2.31524 36.2561 2.295 37.4883 3.12503 37.5C3.125 37.5 5.625 37.5 5.625 37.5C5.97045 37.5 6.25 37.2205 6.25 36.875V30.8331H10V36.875C10.0152 37.6927 11.2342 37.7006 11.25 36.875V34.1669H15V36.875C15.0127 37.6917 16.2356 37.7007 16.25 36.875V30.8331H20V36.875C20 37.2205 20.2795 37.5 20.625 37.5H23.125C23.4705 37.5 23.75 37.2205 23.75 36.875C23.75 36.5295 23.4705 36.25 23.125 36.25H21.25V27.5H24.4659L28.9478 36.4636C29.2676 37.1027 29.9103 37.5 30.625 37.5H35.625C38.0873 37.4367 38.1064 33.8179 35.625 33.75ZM6.25 29.5831V27.5H10V29.5831H6.25ZM15 27.5V29.5831H11.25V27.5H15ZM15 32.9169H11.25V30.8331H15V32.9169ZM16.25 29.5831V27.5H17.5C17.8455 27.5 18.125 27.2205 18.125 26.875C18.125 26.5295 17.8455 26.25 17.5 26.25H6.25V11.875C6.25 11.5295 5.97045 11.25 5.625 11.25H4.7882L13.125 3.95569L21.4618 11.25H8.75C7.92981 11.2658 7.9265 12.4846 8.75002 12.5C8.75 12.5 20 12.5 20 12.5V29.5831H16.25ZM35.625 36.25H30.625C30.3863 36.25 30.1721 36.1176 30.0659 35.9045L25.4114 26.5955C25.3052 26.3837 25.0891 26.25 24.8523 26.25H21.25V25H25.625C25.8636 25 26.0779 25.1324 26.1841 25.3455L30.8386 34.6545C30.9448 34.8663 31.1609 35 31.3977 35H35.625C36.4411 35.0107 36.45 36.2367 35.625 36.25Z" fill="white"/>
</svg>
