<svg width="326" height="350" viewBox="0 0 326 350" fill="none" xmlns="http://www.w3.org/2000/svg">
<path fill-rule="evenodd" clip-rule="evenodd" d="M253.685 67.9299L249.028 58.4885C247.362 54.6863 248.814 52.3793 245.14 47.3382C242.193 47.2527 244.841 47.0819 242.662 48.1499C240.612 43.6641 235.058 39.691 228.65 38.7939C230.957 36.7433 247.405 29.3097 251.506 27.43C259.153 23.8841 267.227 20.1246 275.131 16.8351C278.121 18.4585 278.292 20.68 282.393 22.3888C281.753 28.8825 280.3 31.1468 277.737 36.1879C271.457 48.5771 274.874 51.3113 265.476 60.71C263.468 62.7179 257.444 66.9901 253.685 67.9299ZM297.261 20.4664C301.063 28.0708 304.48 42.5961 305.249 51.055L287.349 56.1388C289.998 49.3034 292.049 45.5439 291.749 36.8287C291.493 29.7797 290.169 22.9015 290.34 15.7243C293.373 14.9126 294.355 14.6563 297.261 20.4664ZM161.406 70.4078C166.789 69.6815 208.656 46.9537 217.414 44.0486C212.33 50.0724 214.295 57.1641 219.038 63.2306C222.327 67.46 220.746 64.5122 220.405 68.3999C232.837 77.585 226.044 70.2796 232.922 75.1926C235.101 76.7306 235.186 76.1752 236.34 78.9521C231.213 80.7037 229.761 81.9853 233.734 85.9157C233.648 96.4679 234.289 98.7321 240.056 104.841C244.158 109.156 247.96 113.599 251.976 118.769C254.026 121.417 255.223 123.254 257.06 125.903C263.126 134.533 259.751 134.319 261.289 147.306C261.93 152.39 263.895 152.39 266.8 154.996C266.886 161.148 263.169 159.525 261.674 171.871C259.452 190.028 264.45 194.386 264.878 195.753C266.672 201.904 265.049 219.848 262.998 226.042C261.246 231.254 263.938 229.503 260.776 232.322C259.495 233.518 260.093 233.134 259.238 233.988C255.693 237.62 257.871 232.493 249.669 242.575C246.55 246.463 242.748 252.786 240.099 257.613C245.012 257.571 249.412 258.126 253.898 259.578C257.231 260.647 262.272 263.722 264.749 263.68L265.518 263.637L276.968 248.556C278.634 246.42 279.916 245.566 281.496 243.344C287.349 235.313 289.827 229.545 293.031 218.352C295.68 236.381 294.441 251.504 294.398 269.703C301.191 269.96 297.261 265.474 304.011 266.414C305.378 267.397 307.257 270.259 307.855 272.822C308.881 277.009 307.514 279.999 308.112 283.503C309.137 289.184 312.854 287.134 312.213 299.908C316.357 296.362 314.007 258.98 318.322 243.344C319.732 238.26 324.859 191.822 325.115 186.653C325.457 180.159 324.944 172.768 323.705 166.531C321.74 156.492 318.621 154.868 318.066 151.28C317.169 146.025 317.382 147.99 314.947 144.957C313.751 143.504 311.957 135.003 310.718 131.158C309.863 128.552 309.564 126.287 308.881 123.639L299.995 101.765C297.431 95.4853 291.792 86.2147 292.518 78.7812C294.825 77.3714 296.919 76.8587 299.14 75.748C303.626 73.4837 301.96 72.1594 303.242 70.1515L316.357 61.9062C322.466 57.5059 321.185 56.0961 319.86 47.1246C317.98 34.3081 313.537 29.9505 307.898 18.2876C301.661 5.30026 303.156 -2.94499 285.939 0.985388C282.693 1.71165 283.931 1.32716 282.906 3.2069C281.069 6.53918 284.06 4.53127 280.172 5.77019C278.848 6.15469 279.189 5.77019 278.164 6.32557C274.063 8.50437 280.941 6.62462 273.593 9.31608L272.995 13.2037C265.732 15.9806 263.596 18.1594 259.537 20.5091C255.351 22.9015 249.797 25.3366 245.311 27.6009C236.169 32.2148 226.941 36.9142 217.414 41.6562C208.186 46.2702 198.617 50.7559 189.474 55.7116L164.995 68.0154C164.397 68.3144 163.884 68.528 163.286 68.9125L161.406 70.4078Z" fill="#E9EAED"/>
<path fill-rule="evenodd" clip-rule="evenodd" d="M176.272 129.876C176.229 127.014 175.973 125.86 177.724 124.28L179.561 122.955C173.837 122.656 166.275 118.469 162.302 116.077C152.305 110.139 140.984 115.052 130.517 100.099C128.851 97.7068 127.228 95.6134 124.878 93.99C121.332 91.5549 118.812 92.4948 115.736 91.085C117.06 88.6071 118.683 89.547 119.239 86.4283C120.093 81.6862 118.299 86.3429 120.649 78.7812C116.505 74.0818 118.171 77.8413 116.932 71.134C116.675 69.7242 113.856 64.1704 113.001 63.316C108.9 59.172 101.979 56.9505 95.6565 58.6594C93.8622 59.172 92.965 59.941 91.7261 60.71C88.6929 62.547 90.359 60.6245 88.8637 63.7005C86.0869 69.3397 84.6343 76.9442 87.6248 82.1989C90.4872 87.1973 92.1533 86.172 93.1359 89.2907C85.7878 87.7954 83.609 85.8302 74.2957 86.2574C65.1961 86.6419 63.9999 85.2321 56.4382 83.0533C51.5679 81.6862 43.0236 80.49 39.3068 78.8666C36.7863 77.7986 34.8211 76.2606 33.0268 74.8508C29.78 72.2448 28.6692 72.5866 25.935 71.0486C30.8907 67.759 37.4271 65.4094 38.0679 54.8144C38.8369 42.2116 27.2594 33.1974 15.041 36.316C12.7341 36.9141 6.75307 39.691 5.55687 41.0581C1.11384 46.2701 -2.17571 54.4299 1.75466 62.8033C3.97618 67.5027 4.65972 67.2891 8.80371 70.0233L25.2942 81.9426C36.8717 89.5897 27.0885 86.2574 44.1344 92.153C48.1929 93.5201 50.4999 95.3571 54.1312 97.066C64.3843 101.894 72.2451 100.954 76.56 103.56C77.628 117.572 74.8938 120.819 82.4555 131.969C85.3606 136.242 92.7087 151.408 89.7609 157.56C86.4286 164.566 80.9603 172.598 86.6422 184.602C92.1533 196.137 89.5046 196.351 86.9413 204.468C85.1043 210.235 88.821 213.482 81.9429 214.208C79.8068 214.465 78.1834 214.55 76.1328 214.892C49.2609 219.079 71.1771 212.286 42.5964 212.585C37.0853 212.628 36.3163 212.585 34.1803 216.985C30.5917 224.291 29.0964 229.161 30.4208 237.577C32.7705 252.999 39.7768 241.123 40.6312 240.226C48.492 232.066 54.0885 231.852 64.598 231.297C64.7261 231.169 64.8116 230.699 64.8543 230.827L65.8796 227.666C87.5394 226.427 78.1834 232.408 91.5979 236.466C92.0679 251.162 78.8669 258.51 77.8416 285.468C77.5426 293.713 79.5505 305.504 71.946 310.887C67.0331 314.305 58.4033 316.825 69.6391 328.83C76.0046 335.665 86.1296 347.457 94.4175 344.979C94.802 340.578 92.6232 339.254 91.0425 336.563C89.2482 333.529 90.5299 330.752 90.4017 326.822C90.3163 323.96 88.4793 319.602 90.1027 317.466C91.8542 315.159 95.0584 314.903 94.9729 310.631L88.6929 309.691C88.0093 296.575 94.0758 285.596 97.4935 273.121C103.774 249.881 109.028 256.075 109.669 239.371C114.497 238.047 113.899 238.09 115.607 233.86C123.639 233.946 130.603 235.27 133.123 228.093C135.815 220.488 132.183 213.952 131.671 207.33C144.701 195.24 127.185 191.224 123.255 168.496C122.656 165.121 125.049 160.55 125.775 156.833C126.544 152.604 127.014 147.947 127.228 143.419C127.698 134.319 126.8 123.083 127.612 114.71C131.329 116.547 134.533 117.188 138.891 118.854C142.565 120.306 145.854 123.212 149.614 124.237C154.441 125.561 168.667 125.433 176.272 129.876Z" fill="#E9EAED"/>
<path fill-rule="evenodd" clip-rule="evenodd" d="M179.562 122.955L177.725 124.279C175.973 125.86 176.229 127.014 176.272 129.876C177.34 137.181 173.324 149.442 173.538 158.798C169.01 159.14 160.252 156.406 157.389 153.928C154.185 151.194 155.51 142.265 148.845 140.343C149.101 142.949 150.511 144.743 150.298 146.965C147.392 146.025 148.76 144.188 144.017 143.931C143.163 146.11 143.889 144.914 143.676 146.623C142.138 157.389 139.959 156.15 151.964 161.362C156.108 163.156 159.44 167.001 168.71 171.06C171.701 172.341 175.204 173.11 178.109 174.392C181.57 182.552 179.604 190.113 182.082 198.273C183.748 203.87 182.381 204.126 180.331 208.74C178.921 211.987 177.639 215.105 176.315 218.267C170.761 231.297 169.351 239.414 165.763 248.428C164.31 252.145 162.9 253.939 162.388 258.468C161.448 266.457 161.405 275.385 160.508 283.716C159.654 291.961 159.013 300.335 157.902 308.238C156.236 320.2 157.603 321.14 149.016 326.608C145.983 328.488 142.223 328.958 137.994 329.086C132.355 329.214 131.5 325.455 127.783 327.335C125.135 330.24 126.843 334.512 129.065 337.246C134.448 343.825 141.668 344.124 147.478 345.449C149.315 345.833 162.687 353.993 167.984 347.499C170.377 344.551 167.984 341.262 167.728 337.588C167.557 334.725 167.856 334.469 167.002 331.692C166.275 329.257 165.891 329.983 166.574 326.694C170.59 307.64 180.459 298.925 180.117 275.129C179.946 266.627 183.321 260.646 187.038 255.477C188.918 252.828 190.712 250.735 192.592 248.086C194.514 245.48 195.668 242.874 197.633 240.097L199.128 242.618C199.598 243.686 199.812 244.327 200.282 245.309C215.149 277.265 217.797 270.387 220.617 274.275L221.557 273.976C221.685 272.694 221.514 273.335 221.941 272.395C226.342 271.07 231.383 271.498 233.861 268.08C235.057 266.457 235.484 264.32 236.595 262.441C237.578 260.689 238.688 259.493 239.884 257.57C234.203 258.083 230.614 259.707 228.521 254.665L220.788 217.241C219.592 206.988 225.658 203.656 219.677 191.779C215.063 182.637 209.381 182.765 207.801 173.751C215.661 169.094 218.438 171.7 231.255 160.208C236.809 155.167 234.886 153.757 231.041 148.118C228.435 144.23 225.615 141.539 222.454 138.591C211.731 128.466 213.269 138.036 204.511 119.751C202.503 115.607 199.427 113.984 197.761 108.43C195.198 100.014 199.598 101.68 199.854 93.9045L203.998 93.3919C202.631 97.9203 201.478 94.8444 201.179 102.662C200.837 112.403 205.408 122.186 214.508 124.579C212.714 121.161 204.255 117.615 206.69 111.933C208.783 113.642 209.424 114.582 212.286 115.906C225.231 121.759 214.551 128.893 224.377 131.457L223.351 129.363C222.198 126.629 222.753 125.775 222.625 122.528L223.479 123.169C223.608 123.254 223.778 123.382 223.907 123.468C224.377 123.81 224.419 123.895 225.146 124.365C232.109 128.637 225.231 128.082 230.956 130.175C231.383 125.689 231.639 123.681 228.307 121.075C226.812 119.922 222.454 117.017 224.761 113.813C228.179 115.094 226.513 117.786 229.546 119.281C231.383 120.221 231.468 119.324 233.348 120.605C235.1 121.759 233.861 121.631 235.612 123.169C238.261 116.718 225.06 117.273 225.615 108.045C227.111 108.344 228.008 108.686 229.46 109.626L232.75 112.702C231.981 106.764 229.802 108.515 229.033 105.738C231.81 104.585 233.391 105.696 235.527 105.824C234.587 101.765 232.921 102.406 230.101 100.612C229.161 97.1514 232.793 102.449 229.717 97.8349C228.82 96.5105 227.709 95.7843 226.598 95.0153C224.419 93.52 222.454 92.0675 219.592 90.914C218.823 88.8634 218.823 92.5374 220.019 90.4441C220.788 89.0343 221.087 92.0675 220.19 89.8887C219.934 89.2052 218.951 88.9916 218.139 88.6925C211.945 86.3855 208.869 87.8808 205.622 87.3681C202.845 86.9836 203.229 86.5137 199.427 86.77C198.445 80.2336 193.233 74.4235 186.611 73.6545C178.152 72.6292 172.427 77.7131 167.728 80.49C167.6 81.8998 167.087 91.9393 167.215 92.9219C168.71 102.278 167.087 96.6814 165.72 103.645C166.404 103.859 168.839 104.329 169.565 104.756C171.829 106.166 172.256 108.686 173.752 112.317C173.794 112.446 173.923 112.659 173.965 112.787L174.435 113.77C176.358 114.454 179.904 112.745 182.979 113.001C183.834 114.795 184.432 117.572 184.09 120.178L179.562 122.955Z" fill="#E9EAED"/>
<path fill-rule="evenodd" clip-rule="evenodd" d="M251.419 280.982C246.592 279.914 241.166 279.358 236.21 277.949C231.297 276.539 226.769 275.001 221.557 273.976L220.617 274.275C218.823 278.889 219.293 282.733 218.566 287.732C217.925 292.132 216.302 296.49 215.96 300.506C215.149 309.434 218.652 320.286 228.819 317.509C233.348 315.33 233.134 300.506 236.509 290.552C242.362 291.491 241.166 290.68 245.054 287.689C247.574 285.767 249.967 283.802 251.419 280.982Z" fill="#E9EAED"/>
<path fill-rule="evenodd" clip-rule="evenodd" d="M251.973 281.11C258.894 281.623 264.661 281.964 271.069 283.844C274.7 284.912 283.544 287.561 286.62 289.313L287.261 291.32C288.457 294.824 291.319 296.191 294.78 297.643L294.352 292.089C294.481 288.544 293.412 284.827 293.412 280.939C293.412 276.881 294.181 273.634 294.395 269.703C287.261 272.908 288.329 276.069 271.838 268.123C265.857 265.218 266.156 266.286 265.515 263.637L264.746 263.68C264.191 266.969 260.731 270.472 258.68 272.908C257.099 274.787 252.87 279.358 251.973 281.11Z" fill="#E9EAED"/>
<path fill-rule="evenodd" clip-rule="evenodd" d="M294.397 269.703C294.183 273.634 293.414 276.881 293.414 280.939C293.414 284.827 294.482 288.544 294.354 292.089C295.465 293.969 294.696 295.123 295.037 297.729C305.547 303.026 299.481 304.222 303.283 310.801L306.871 310.417C309.862 308.153 309.007 310.972 310.759 306.23C311.443 304.393 312.126 302.257 312.212 299.907C312.852 287.134 309.136 289.184 308.11 283.502C307.512 279.999 308.879 277.009 307.854 272.822C307.256 270.259 305.376 267.396 304.009 266.414C297.259 265.474 301.189 269.96 294.397 269.703Z" fill="#E9EAED"/>
<path fill-rule="evenodd" clip-rule="evenodd" d="M221.557 273.976C226.769 275.001 231.297 276.539 236.21 277.949C241.166 279.359 246.591 279.914 251.419 280.982L251.974 281.11C252.871 279.359 257.101 274.787 258.682 272.908C260.732 270.472 264.193 266.969 264.748 263.68C262.27 263.722 257.229 260.647 253.897 259.578C249.411 258.126 245.011 257.571 240.098 257.613L239.884 257.571C238.688 259.493 237.577 260.689 236.595 262.441C235.484 264.321 235.057 266.457 233.86 268.08C231.383 271.498 226.341 271.071 221.941 272.395C221.514 273.335 221.685 272.694 221.557 273.976Z" fill="#E9EAED"/>
<path fill-rule="evenodd" clip-rule="evenodd" d="M294.782 297.643C292.389 303.026 294.44 305.29 289.356 308.025C284.571 310.673 279.316 309.05 277.095 310.631C273.335 313.835 283.46 327.377 295.508 321.995C301.617 319.303 303.369 323.874 305.462 318.876L306.872 310.417L303.283 310.801C299.481 304.222 305.547 303.026 295.038 297.729C294.696 295.123 295.465 293.969 294.354 292.089L294.782 297.643Z" fill="#E9EAED"/>
<path fill-rule="evenodd" clip-rule="evenodd" d="M161.405 70.4078C156.748 70.066 148.887 76.3033 147.178 79.3793C140.941 90.5296 156.364 102.321 158.542 85.5312C159.098 81.5581 158.585 77.4141 157.816 73.6119C160.038 71.8176 160.849 72.2875 161.405 70.4078Z" fill="#E9EAED"/>
</svg>
