<svg width="40" height="40" viewBox="0 0 40 40" fill="none" xmlns="http://www.w3.org/2000/svg">
<path d="M27.52 8.60658C27.9702 8.80753 28.4555 8.91784 28.9483 8.93121C29.4411 8.94457 29.9317 8.86073 30.3921 8.68447C30.8525 8.50821 31.2736 8.24298 31.6315 7.90393C31.9894 7.56488 32.277 7.15865 32.4778 6.70845C32.7804 6.03048 32.8751 5.27802 32.75 4.54622C32.6249 3.81443 32.2856 3.13616 31.775 2.59719C31.2644 2.05822 30.6055 1.68275 29.8815 1.51827C29.1576 1.35379 28.4011 1.40768 27.7078 1.67313C27.0144 1.93858 26.4154 2.40366 25.9863 3.00956C25.5573 3.61547 25.3176 4.33499 25.2975 5.07713C25.2774 5.81927 25.4778 6.5507 25.8734 7.17894C26.269 7.80717 26.842 8.30399 27.52 8.60658ZM26.6209 4.09376C26.7633 3.77477 26.9671 3.48695 27.2208 3.24673C27.4744 3.00651 27.7728 2.8186 28.0991 2.69372C28.4253 2.56884 28.7729 2.50944 29.1221 2.51891C29.4713 2.52838 29.8152 2.60654 30.1342 2.74892C30.4532 2.8913 30.741 3.09512 30.9813 3.34873C31.2215 3.60235 31.4094 3.90079 31.5343 4.22703C31.6591 4.55327 31.7185 4.90091 31.7091 5.25011C31.6996 5.5993 31.6214 5.94321 31.4791 6.2622C31.3367 6.58119 31.1329 6.86901 30.8793 7.10923C30.6256 7.34945 30.3272 7.53737 30.001 7.66225C29.6747 7.78713 29.3271 7.84653 28.9779 7.83705C28.6287 7.82758 28.2848 7.74943 27.9658 7.60704C27.6468 7.46466 27.359 7.26085 27.1188 7.00723C26.8785 6.75361 26.6906 6.45517 26.5657 6.12893C26.4409 5.80269 26.3815 5.45505 26.3909 5.10586C26.4004 4.75666 26.4786 4.41275 26.6209 4.09376Z" fill="white"/>
<path d="M36.0528 14.7369H30.4406L28.5406 10.48C28.5337 10.4638 28.5257 10.4481 28.5169 10.4328C28.3158 10.0038 27.9984 9.63978 27.6005 9.38237C27.2027 9.12496 26.7406 8.98446 26.2669 8.97688C26.2515 8.97563 26.2361 8.97501 26.2209 8.97501H19.3703C19.3534 8.97501 19.3363 8.97501 19.3197 8.97751C18.8393 8.98879 18.372 9.13591 17.9718 9.40181C17.5716 9.66772 17.2549 10.0415 17.0584 10.48L14.0937 17.1194C13.8237 17.7337 13.8077 18.4299 14.0494 19.0559C14.2911 19.682 14.7707 20.1869 15.3835 20.4603C15.9963 20.7338 16.6925 20.7536 17.3198 20.5154C17.9471 20.2772 18.4547 19.8003 18.7316 19.1891L21.025 14.0538H22.3081L12.9587 35C12.6852 35.6152 12.6668 36.3137 12.9075 36.9424C13.1483 37.5711 13.6286 38.0787 14.2431 38.3538C14.5676 38.4987 14.919 38.5732 15.2744 38.5725C15.7654 38.5727 16.2459 38.4308 16.658 38.1639C17.0702 37.897 17.3962 37.5166 17.5969 37.0684L22.8878 25.2159L24.4275 25.9034L21.8931 31.5813C21.6187 32.1963 21.5998 32.8952 21.8406 33.5242C22.0815 34.1532 22.5623 34.6607 23.1773 34.9352C23.7924 35.2096 24.4913 35.2285 25.1203 34.9877C25.7492 34.7468 26.2568 34.266 26.5312 33.6509L30.1 25.6541C30.236 25.3496 30.3107 25.0212 30.3197 24.6879C30.3288 24.3545 30.2721 24.0226 30.1529 23.7111C30.0337 23.3996 29.8543 23.1147 29.625 22.8726C29.3956 22.6305 29.1208 22.4359 28.8162 22.3L24.9578 20.5781L26.2219 17.7459L26.4744 18.3113C26.6756 18.7609 27.0031 19.1425 27.417 19.4096C27.831 19.6767 28.3136 19.8179 28.8062 19.8159H36.0528C36.3863 19.8159 36.7165 19.7503 37.0246 19.6226C37.3327 19.495 37.6126 19.308 37.8484 19.0722C38.0842 18.8364 38.2713 18.5564 38.3989 18.2483C38.5265 17.9403 38.5922 17.61 38.5922 17.2766C38.5922 16.9431 38.5265 16.6129 38.3989 16.3048C38.2713 15.9967 38.0842 15.7168 37.8484 15.481C37.6126 15.2452 37.3327 15.0581 37.0246 14.9305C36.7165 14.8029 36.3863 14.7369 36.0528 14.7369ZM36.0528 18.7219H28.8478H28.8119C28.806 18.7225 28.8 18.7225 28.7941 18.7219C28.5146 18.7221 28.2411 18.6414 28.0066 18.4894C27.7722 18.3374 27.5867 18.1208 27.4728 17.8656L26.7213 16.1813C26.6784 16.0844 26.6083 16.0022 26.5195 15.9444C26.4308 15.8866 26.3271 15.8559 26.2212 15.8559C26.1154 15.8559 26.0117 15.8866 25.923 15.9444C25.8342 16.0022 25.7641 16.0844 25.7212 16.1813L23.7362 20.6316C23.7069 20.6972 23.6908 20.7679 23.6888 20.8397C23.6868 20.9115 23.699 20.9831 23.7247 21.0502C23.7504 21.1173 23.7891 21.1787 23.8385 21.2308C23.8879 21.283 23.9472 21.3248 24.0128 21.3541L28.3706 23.2991C28.544 23.3764 28.7004 23.4871 28.831 23.6249C28.9615 23.7627 29.0637 23.9249 29.1315 24.1022C29.1994 24.2795 29.2317 24.4684 29.2266 24.6581C29.2214 24.8479 29.1789 25.0348 29.1016 25.2081L25.5312 33.205C25.3719 33.5503 25.0829 33.819 24.7268 33.9527C24.3708 34.0865 23.9764 34.0746 23.6291 33.9196C23.2818 33.7646 23.0095 33.479 22.8713 33.1247C22.7331 32.7703 22.74 32.3758 22.8906 32.0266L25.6478 25.8494C25.6771 25.7838 25.6933 25.7131 25.6952 25.6413C25.6972 25.5695 25.685 25.498 25.6593 25.4309C25.6336 25.3638 25.595 25.3025 25.5455 25.2504C25.4961 25.1982 25.4369 25.1564 25.3713 25.1272L22.8328 23.9941C22.7673 23.9648 22.6966 23.9487 22.6248 23.9467C22.553 23.9448 22.4816 23.957 22.4145 23.9827C22.3475 24.0084 22.2862 24.047 22.2341 24.0964C22.182 24.1458 22.1401 24.205 22.1109 24.2706L16.5981 36.625C16.5208 36.7984 16.41 36.9548 16.2722 37.0854C16.1344 37.216 15.9722 37.3182 15.7949 37.3861C15.4368 37.5232 15.0389 37.5125 14.6888 37.3563C14.3386 37.2 14.0648 36.9111 13.9277 36.553C13.7905 36.1949 13.8013 35.797 13.9575 35.4469L23.6503 13.73C23.6875 13.6467 23.7032 13.5554 23.6961 13.4644C23.6889 13.3734 23.6592 13.2857 23.6095 13.2092C23.5598 13.1327 23.4917 13.0698 23.4115 13.0263C23.3314 12.9827 23.2416 12.96 23.1503 12.96H20.6703C20.5646 12.9599 20.461 12.9904 20.3723 13.0479C20.2835 13.1054 20.2134 13.1875 20.1703 13.2841L17.7328 18.7431C17.6555 18.9165 17.5447 19.073 17.4069 19.2036C17.2691 19.3341 17.1069 19.4363 16.9296 19.5042C16.5715 19.6413 16.1736 19.6306 15.8234 19.4744C15.4733 19.3182 15.1995 19.0292 15.0624 18.6711C14.9252 18.3131 14.936 17.9152 15.0922 17.565L18.0553 10.9256C18.1693 10.6718 18.354 10.4562 18.5873 10.3046C18.8206 10.1529 19.0927 10.0717 19.3709 10.0706C19.3847 10.0706 19.3984 10.0706 19.4119 10.0688H26.1806C26.1944 10.0688 26.2078 10.0703 26.2216 10.0703C26.5005 10.0698 26.7736 10.1505 27.0075 10.3026C27.2414 10.4546 27.426 10.6714 27.5387 10.9266C27.545 10.9409 27.5522 10.955 27.5597 10.9688L29.5853 15.5069C29.6284 15.6034 29.6986 15.6854 29.7873 15.7429C29.8761 15.8003 29.9796 15.8308 30.0853 15.8306H36.0541C36.4375 15.8306 36.8052 15.9829 37.0763 16.254C37.3474 16.5252 37.4997 16.8929 37.4997 17.2763C37.4997 17.6597 37.3474 18.0274 37.0763 18.2985C36.8052 18.5696 36.4375 18.7219 36.0541 18.7219H36.0528Z" fill="white"/>
<path d="M12.8672 20C12.8672 19.855 12.8096 19.7159 12.707 19.6133C12.6045 19.5107 12.4654 19.4531 12.3203 19.4531H1.95469C1.80965 19.4531 1.67055 19.5107 1.56799 19.6133C1.46543 19.7159 1.40781 19.855 1.40781 20C1.40781 20.145 1.46543 20.2841 1.56799 20.3867C1.67055 20.4893 1.80965 20.5469 1.95469 20.5469H12.3203C12.4654 20.5469 12.6045 20.4893 12.707 20.3867C12.8096 20.2841 12.8672 20.145 12.8672 20Z" fill="white"/>
<path d="M4.26687 17.2475H12.5341C12.6791 17.2475 12.8182 17.1899 12.9208 17.0873C13.0233 16.9848 13.0809 16.8457 13.0809 16.7006C13.0809 16.5556 13.0233 16.4165 12.9208 16.3139C12.8182 16.2114 12.6791 16.1537 12.5341 16.1537H4.26687C4.12183 16.1537 3.98273 16.2114 3.88018 16.3139C3.77762 16.4165 3.72 16.5556 3.72 16.7006C3.72 16.8457 3.77762 16.9848 3.88018 17.0873C3.98273 17.1899 4.12183 17.2475 4.26687 17.2475Z" fill="white"/>
<path d="M16.0541 23.2994C16.0541 23.1543 15.9964 23.0152 15.8939 22.9127C15.7913 22.8101 15.6522 22.7525 15.5072 22.7525H7.24C7.09496 22.7525 6.95586 22.8101 6.8533 22.9127C6.75074 23.0152 6.69312 23.1543 6.69312 23.2994C6.69312 23.4444 6.75074 23.5835 6.8533 23.6861C6.95586 23.7886 7.09496 23.8463 7.24 23.8463H15.5072C15.6522 23.8463 15.7913 23.7886 15.8939 23.6861C15.9964 23.5835 16.0541 23.4444 16.0541 23.2994Z" fill="white"/>
</svg>
