<svg width="24" height="22" viewBox="0 0 24 22" fill="none" xmlns="http://www.w3.org/2000/svg">
<path d="M10.3301 14.9248H4.02942" stroke="black" stroke-width="1.5" stroke-linecap="round" stroke-linejoin="round"/>
<path d="M13.1405 6.20664H19.4412" stroke="black" stroke-width="1.5" stroke-linecap="round" stroke-linejoin="round"/>
<path fill-rule="evenodd" clip-rule="evenodd" d="M8.72629 6.15798C8.72629 4.99258 7.66813 4.04761 6.36314 4.04761C5.05816 4.04761 4 4.99258 4 6.15798C4 7.32338 5.05816 8.26836 6.36314 8.26836C7.66813 8.26836 8.72629 7.32338 8.72629 6.15798Z" stroke="black" stroke-width="1.5" stroke-linecap="round" stroke-linejoin="round"/>
<path fill-rule="evenodd" clip-rule="evenodd" d="M20 14.8896C20 13.7242 18.9426 12.7792 17.6376 12.7792C16.3318 12.7792 15.2737 13.7242 15.2737 14.8896C15.2737 16.055 16.3318 16.9999 17.6376 16.9999C18.9426 16.9999 20 16.055 20 14.8896Z" stroke="black" stroke-width="1.5" stroke-linecap="round" stroke-linejoin="round"/>
</svg>
