<svg width="24" height="24" viewBox="0 0 24 24" fill="none" xmlns="http://www.w3.org/2000/svg">
<path d="M9.76337 0H9.76649V0.0013672C12.4616 0.00214846 14.9021 1.09532 16.6681 2.86174C18.4312 4.62563 19.5234 7.06393 19.5252 9.75692H19.5265V9.76337V9.77118H19.5252C19.5242 10.8565 19.3461 11.9011 19.0185 12.8751C18.9636 13.0386 18.9062 13.1956 18.8472 13.3456V13.347C18.5648 14.0618 18.1998 14.7376 17.7638 15.3601L23.444 20.4654L23.4475 20.4685L23.4781 20.4971L23.4803 20.4992C23.801 20.8045 23.9756 21.2133 23.9977 21.6281C24.0192 22.0383 23.8916 22.4578 23.6111 22.7943L23.609 22.7975L23.5748 22.8371L23.568 22.844L23.5395 22.8752L23.5363 22.8793C23.2307 23.2 22.8227 23.3742 22.4074 23.3961C21.9978 23.4178 21.5779 23.2906 21.2412 23.0098L21.2383 23.0076L21.1984 22.9734L21.1928 22.9688L15.3831 17.7472C15.2113 17.8683 15.0359 17.9834 14.8583 18.092C14.6175 18.2394 14.3681 18.3783 14.1136 18.505C12.8052 19.1578 11.3267 19.525 9.76356 19.525V19.5263H9.76044V19.525C7.0653 19.5242 4.62445 18.431 2.85842 16.6646C1.09474 14.9007 0.00312503 12.462 0.0013672 9.76981H0V9.76337V9.76024H0.0013672C0.00214846 7.0651 1.09532 4.62426 2.86174 2.85823C4.62563 1.09532 7.06393 0.00312503 9.75692 0.0013672V0H9.76337ZM9.76649 2.18947V2.19084H9.76337H9.75692V2.18947C7.66979 2.19084 5.77798 3.03909 4.40844 4.40805C3.03909 5.777 2.19006 7.67077 2.18947 9.76044H2.19084V9.76356V9.77001H2.18947C2.19084 11.8571 3.0385 13.748 4.40805 15.1179C5.777 16.4875 7.67077 17.3365 9.76024 17.3369V17.3355H9.76337H9.76981V17.3369C11.8569 17.3355 13.748 16.4876 15.1179 15.1183C16.4873 13.7493 17.3363 11.8562 17.3367 9.76669H17.3355V9.76356V9.75712H17.3367C17.3355 7.66999 16.4871 5.77818 15.1183 4.40863C13.7493 3.03909 11.8562 2.19006 9.76649 2.18947Z" fill="black"/>
</svg>
