<svg width="17" height="17" viewBox="0 0 17 17" fill="none" xmlns="http://www.w3.org/2000/svg">
<path d="M16.5826 2.38512C16.4165 1.93493 16.1514 1.52745 15.807 1.19297C15.4725 0.848581 15.0653 0.583537 14.6149 0.417403C14.2495 0.275513 13.7007 0.106624 12.6899 0.0606129C11.5964 0.010745 11.2685 0 8.50013 0C5.7315 0 5.40364 0.0104695 4.3104 0.0603374C3.29955 0.106624 2.75045 0.275513 2.38539 0.417403C1.93493 0.583537 1.52745 0.848581 1.19325 1.19297C0.848856 1.52745 0.583812 1.93465 0.417403 2.38512C0.275513 2.75045 0.106624 3.29955 0.0606129 4.3104C0.010745 5.40364 0 5.7315 0 8.50013C0 11.2685 0.010745 11.5964 0.0606129 12.6899C0.106624 13.7007 0.275513 14.2495 0.417403 14.6149C0.583812 15.0653 0.848581 15.4725 1.19297 15.807C1.52745 16.1514 1.93465 16.4165 2.38512 16.5826C2.75045 16.7248 3.29955 16.8936 4.3104 16.9397C5.40364 16.9895 5.73123 17 8.49986 17C11.2688 17 11.5966 16.9895 12.6896 16.9397C13.7004 16.8936 14.2495 16.7248 14.6149 16.5826C15.5191 16.2338 16.2338 15.5191 16.5826 14.6149C16.7245 14.2495 16.8934 13.7007 16.9397 12.6899C16.9895 11.5964 17 11.2685 17 8.50013C17 5.7315 16.9895 5.40364 16.9397 4.3104C16.8936 3.29955 16.7248 2.75045 16.5826 2.38512ZM8.50013 13.8239C5.55958 13.8239 3.17584 11.4404 3.17584 8.49986C3.17584 5.55931 5.55958 3.17584 8.50013 3.17584C11.4404 3.17584 13.8242 5.55931 13.8242 8.49986C13.8242 11.4404 11.4404 13.8239 8.50013 13.8239ZM14.0346 4.20957C13.3475 4.20957 12.7904 3.65248 12.7904 2.96535C12.7904 2.27822 13.3475 1.72113 14.0346 1.72113C14.7218 1.72113 15.2789 2.27822 15.2789 2.96535C15.2786 3.65248 14.7218 4.20957 14.0346 4.20957Z" fill="white"/>
</svg>
