<svg width="425" height="108" viewBox="0 0 425 108" fill="none" xmlns="http://www.w3.org/2000/svg">
<g clip-path="url(#clip0_1_669)">
<path fill-rule="evenodd" clip-rule="evenodd" d="M298.403 92.4854C297.176 93.3882 297.342 93.3214 296.414 94.8594C295.851 95.8291 295.221 96.9325 294.856 97.8687C292.934 99.7412 292.37 100.677 292.171 101.68C291.574 104.656 292.469 107.398 296.016 106.997C299.232 106.663 296.248 105.459 299.53 106.061C302.182 106.529 306.557 106.83 308.745 105.96C308.579 102.918 305.033 104.088 303.243 101.981C300.988 99.3065 303.375 97.5344 304.834 95.6954C308.447 91.0811 313.386 92.3183 312.524 83.7919C316.933 81.2173 316.17 79.8464 320.977 83.6582C323.33 85.5306 325.352 87.0019 327.838 89.0749C327.639 91.1145 327.109 90.2452 327.341 92.8532L328.004 102.115C328.369 104.054 327.341 103.051 327.474 105.827C328.899 106.462 336.921 107.565 338.711 107.064C338.446 104.456 337.153 104.556 334.634 103.887L335.065 98.6378C334.866 96.4978 334.7 89.4093 335.098 88.5065C335.297 85.7313 336.092 82.2539 335.031 79.7796C332.214 79.3449 332.976 80.2811 331.054 82.187C329.728 80.0136 328.269 79.1777 326.546 77.5728C325.021 76.1684 324.192 74.7306 322.236 73.4266L324.093 65.87C324.026 64.1647 326.512 64.6328 327.01 61.6235C327.407 59.0823 325.883 58.1461 325.22 56.8421C326.347 54.1672 327.076 55.4043 326.247 52.8966L329.396 52.3616C329.197 50.0879 329.529 51.4588 328.07 50.5226C325.087 48.5833 325.982 46.7443 322.303 47.0452C320.347 47.1789 319.22 48.2824 318.723 49.6867C317.629 52.8297 319.651 51.1913 316.933 54.2006C315.01 53.7659 312.458 52.161 311.165 51.0241C312.491 47.4799 319.087 35.3758 319.087 33.0687C317.96 31.9988 317.098 31.2297 314.712 31.7647C313.552 33.1356 307.916 46.4433 307.088 48.9511L303.309 48.0817C300.193 51.3919 302.613 54.5015 303.972 55.2371C301.751 56.1399 301.32 60.0186 301.386 61.2892C301.486 62.8941 300.823 61.7907 301.95 62.8941C303.375 62.5263 302.513 62.3257 303.906 61.891C305.497 63.4625 307.055 64.8334 309.607 65.6359C309.242 67.408 308.414 68.5783 308.215 69.9492C307.916 71.8551 308.281 72.7245 307.751 74.8644L306.624 83.0563C303.375 83.8923 302.082 88.5399 298.403 92.4854Z" fill="#BE2735"/>
<path fill-rule="evenodd" clip-rule="evenodd" d="M111.813 43.0997L111.747 42.3976C109.924 41.7288 109.427 40.3245 108.233 38.4855C106.808 36.2787 106.609 36.4793 104.919 34.6403C103.792 33.4031 103.195 31.3635 101.869 30.0929C100.41 28.722 99.2171 28.6886 97.3277 27.5183C97.2282 23.9072 99.5817 24.0075 99.3497 20.5969C99.1508 17.8886 96.5984 16.4174 93.582 16.9858C91.8914 17.7214 90.3998 21.4663 90.3003 24.5759C91.5931 25.9802 91.0959 24.8434 91.8583 26.5152C90.4661 25.6124 88.5435 24.7096 87.4165 23.6062C86.8529 23.0378 86.422 22.3022 85.8917 21.6C85.295 20.7976 84.9967 20.5969 84.4663 19.8948C83.3724 18.4904 81.1183 12.5387 80.6874 10.2316C81.6487 9.69662 84.7315 8.0248 85.295 6.82108C89.2064 -1.37087 73.4612 -3.51081 77.7373 7.89105C79.1626 11.6694 78.9637 18.6242 80.3559 21.366C80.7869 22.2353 81.4498 22.8037 82.0133 23.6731C82.5437 24.4756 82.9746 25.2112 83.5713 26.1474C85.063 28.5548 85.0961 28.4545 86.8529 30.3604C86.6872 32.1325 86.1237 32.4335 86.1568 34.3393C86.3226 40.4917 86.2563 38.6527 84.6652 45.6743C84.2674 47.5133 84.8309 47.3796 85.0298 48.8174C85.1624 49.8873 84.7978 51.4923 84.7978 52.7963C84.7315 55.5381 84.9304 58.5474 85.0298 61.2892C85.5602 79.1109 84.2674 76.6031 98.3553 83.7251C98.6868 86.4 97.7918 90.5462 98.5873 92.0842C103.195 92.8867 103.46 82.8223 103.46 82.8223C101.736 81.0836 101.206 82.3208 99.5817 81.2508C97.6923 79.9802 94.8084 76.4025 94.4438 76.1016C93.0848 74.9982 92.4549 75.1319 91.8251 74.7641C92.3223 72.4904 92.4881 74.5301 93.2505 72.1226C93.7809 70.3171 93.9797 66.405 93.3168 64.6997L92.7201 62.6267C93.4825 63.8304 94.2781 65.101 94.7753 66.8062C97.1619 74.7307 94.7753 68.0768 99.2834 74.3629C100.212 75.6335 101.073 76.1016 101.902 77.5394C108.863 89.7437 103.261 91.2818 104.753 95.7288C106.51 96.0298 108.664 94.6589 109.327 93.7895C109.791 93.1542 110.985 89.7771 111.117 88.6403C109.99 86.0322 108.797 86.2997 107.869 83.1901C107.173 80.9833 107.007 78.6093 106.112 76.4694C104.985 73.8279 103.46 73.527 102.598 71.4873C101.736 69.5146 103.062 71.3202 102.797 68.6118C102.631 67.174 102.2 67.475 101.571 65.8031C100.709 63.3957 100.377 61.3561 100.311 58.6143C100.245 54.5016 98.8193 54.7022 98.4879 51.8935C98.1232 48.6502 98.8856 46.8446 98.7862 44.0025C98.7199 41.2273 98.1564 39.7226 99.7806 37.6161C102.002 37.8836 106.841 41.9294 107.637 43.8688C105.051 45.1059 101.637 45.4737 103.427 49.553C106.046 49.553 105.018 47.9146 105.582 45.2062L107.67 44.4372C108.3 44.7715 112.277 48.3493 113.106 49.2186C114.929 51.091 114.366 50.6898 114.598 53.2979C114.73 54.5016 114.101 54.5685 115.327 54.8694C116.52 55.1703 115.393 54.7356 116.388 54.4347L118.443 57.7784C118.774 57.4774 118.675 58.0124 119.305 56.8421C120.664 54.3344 117.084 51.3585 116.388 50.3889C114.797 48.1486 113.438 45.3734 111.813 43.0997Z" fill="#296EB1"/>
<path fill-rule="evenodd" clip-rule="evenodd" d="M335.097 88.5066C334.7 89.4094 334.865 96.4979 335.064 98.6378C337.484 98.1697 343.318 91.5493 345.174 89.844C349.517 85.8651 345.738 87.5369 349.351 86.1995C350.644 85.7313 352.136 82.2205 353.461 80.2477L356.378 85.5642C353.528 87.3363 355.053 85.2967 353.097 88.4063C351.903 90.3121 353.296 88.6069 351.439 89.8775L344.512 98.036C345.075 99.3066 347.627 102.784 348.887 103.653C351.903 101.948 352.102 101.012 351.439 97.1666L352.434 96.732C352.533 96.6985 352.666 96.6316 352.765 96.5982L354.158 95.7289C355.019 95.0601 355.417 94.7258 356.146 94.1573C356.975 93.5221 357.605 92.9871 358.367 92.3852C363.605 88.306 362.975 88.0385 366.29 81.6186C368.709 81.3177 368.146 81.719 370.168 80.9834C373.582 79.7462 368.179 81.0837 371.063 80.649C375.936 85.6979 370.93 80.0137 372.886 93.2546C373.682 98.6044 372.256 96.1301 371.627 100.243C371.229 102.717 371.262 104.389 369.604 105.86C370.334 106.529 370.002 106.462 371.096 106.696C372.72 105.225 372.952 105.024 374.212 103.018C375.737 100.644 376.068 101.547 377.56 99.8416C376.764 96.9326 375.803 97.501 376.433 93.2546C376.831 90.7803 377.461 89.1419 377.461 86.5673C379.98 87.8378 381.604 90.4125 383.991 90.5796C385.913 90.6799 390.786 90.0112 391.847 88.6069C388.963 85.8985 383.759 93.0874 378.322 84.9623C376.93 84.0261 377.096 83.9258 375.903 82.8558C375.074 82.1202 374.345 81.8861 373.483 80.9834C367.582 76.5697 369.704 76.3357 371.461 73.7611C372.72 71.9555 372.19 72.5239 372.124 71.0193C371.925 67.6756 373.582 69.2806 374.51 65.8032C373.649 64.4323 374.742 65.4354 372.986 64.6663C374.013 63.8304 375.538 61.3895 375.836 60.2193C376.566 57.3103 374.974 56.909 374.146 55.5047C375.903 50.7902 376.101 54.4682 376.632 50.6564C377.063 47.5468 372.223 44.1363 369.074 46.7109C367.284 48.1821 367.881 49.8539 367.616 52.462C365.096 53.3313 360.82 53.1642 359.063 54.5351C358.102 55.3041 357.572 56.3406 356.445 57.2769C353.727 59.5171 349.616 62.2255 348.091 64.566C346.898 66.405 345.373 69.4477 343.65 70.384C344.976 71.6211 344.744 71.5208 344.313 73.5939L341.031 85.1964L335.794 89.844C335.595 90.0112 335.33 90.4793 335.263 90.379C335.23 90.2787 335.097 90.5462 334.998 90.6465L335.097 88.5066Z" fill="#9B3369"/>
<path fill-rule="evenodd" clip-rule="evenodd" d="M187.589 89.6434C188.617 90.6799 188.981 93.9567 189.213 95.7288C189.943 97.4675 190.075 99.9418 189.876 102.048C187.125 102.784 185.6 101.58 183.91 103.954C184.871 106.997 193.357 106.796 195.71 105.76C195.777 102.75 194.683 103.754 195.478 101.513C197.799 95.127 197.103 99.34 194.252 90.9808C194.219 90.8805 192.893 83.1232 192.86 82.6217C192.429 78.8768 194.915 76.7703 195.346 76.1684C196.241 77.439 195.644 77.8068 196.837 78.9771C197.302 79.4452 198.727 80.0805 199.191 80.6489C200.484 82.1201 200.02 83.6248 202.241 85.631C205.92 88.9078 208.174 86.2328 212.583 82.9561C214.903 83.6248 216.826 85.33 218.649 85.3969C219.013 81.652 217.82 81.4848 215.798 80.0136C213.312 78.2081 214.804 76.1016 211.19 77.0378C210.461 78.4087 211.124 78.2081 210.461 79.6793C208.24 79.9133 207.942 79.6793 206.417 80.5152C205.986 77.2718 205.754 75.4997 205.158 72.4235C204.727 70.2836 203.467 66.7393 203.368 65.4019C203.102 60.2192 201.412 62.1251 201.611 58.7814C201.71 56.6749 201.379 53.3982 202.373 51.5257C203.964 52.0941 203.566 52.4954 204.826 53.0638C206.45 53.7994 205.887 53.0304 207.445 53.9666C209.036 54.9028 210.097 55.9728 212.019 56.9759C215.268 58.6811 219.08 59.8848 221.964 61.5901C222.593 60.1858 222.527 61.0551 222.394 59.0824C220.671 57.8118 219.743 57.8452 218.218 57.0427C216.925 56.3406 216.03 55.1703 215.036 54.1672C213.643 53.4316 211.721 52.696 210.594 51.6595C203.765 45.3065 207.677 47.1121 200.252 42.5647C200.749 41.9629 203.765 37.7499 204.163 36.6799C203.334 34.774 200.981 32.0991 197.998 33.6037C194.318 35.4762 196.34 39.9567 193.423 40.2576L191.898 40.1239C174.098 36.8136 186.131 40.057 169.292 32.4C166.971 31.33 164.021 28.6886 161.667 30.0595L164.85 31.4638C164.286 32.8013 165.612 30.0595 164.352 31.9988C163.69 33.0353 163.723 30.9288 164.154 32.5338C164.286 33.1022 165.115 33.2694 165.579 33.4031C167.402 33.9715 167.734 33.5703 169.325 34.6068C170.319 35.2421 170.916 36.0446 171.91 36.9139C177.545 41.8291 179.501 40.826 181.225 42.7653C187.523 49.7536 186.694 39.9901 186.727 58.6477C186.727 63.7635 186.363 62.6266 186.595 68.9127C186.76 73.226 185.832 75.4663 186.76 79.3449C187.291 81.5517 186.727 82.7889 186.827 85.0626C186.893 86.7678 187.357 88.1053 187.589 89.6434Z" fill="#25A4B6"/>
<path fill-rule="evenodd" clip-rule="evenodd" d="M53.9037 55.4378C53.3401 52.4953 52.644 50.322 56.0251 50.2551C55.3622 48.3492 55.1633 47.5802 52.7435 47.2792C50.9535 47.0118 49.2961 47.1121 47.5724 47.6136C48.1028 50.6229 47.9702 50.1882 47.2078 53.1306C45.2852 52.3282 46.4122 51.4588 40.8102 50.0545C35.4734 48.717 34.1475 46.8111 30.7664 45.808C28.8107 45.2396 28.6449 45.808 26.9544 44.7715C24.4683 43.3003 25.5622 40.8594 21.7833 40.826C20.0265 43.8353 21.0872 44.3034 23.9379 45.574C24.7998 45.9418 26.1257 46.7443 26.6561 47.3461C28.6449 49.6198 26.424 48.2489 27.4516 50.1548C28.2472 51.626 34.2469 55.8056 39.2191 56.2068C36.1032 56.374 34.8104 56.7752 32.7553 58.4805C30.899 57.143 31.1642 56.5077 28.6118 55.6049C25.5953 54.5015 26.424 56.2068 23.9048 54.1337C22.7778 53.2309 20.7889 52.0272 19.8939 50.9907C18.7669 49.7201 18.0707 48.1152 17.0432 47.1455C14.8222 45.1059 11.7063 43.5344 8.88877 41.4947C5.57398 39.0873 2.72325 36.0446 0.502343 36.4124C-0.558391 38.3517 0.303455 39.8229 1.1653 41.2272C2.72325 43.7015 2.49122 43.3003 4.4138 42.3641C4.94416 43.6681 5.73972 44.6712 6.66786 45.9752C7.23137 46.7777 7.5297 47.1121 7.99377 47.7808C8.12637 47.9145 8.45784 48.4495 8.52414 48.6167C10.4799 52.1944 10.0821 49.6198 12.1041 52.1275C12.8002 53.0303 13.6952 54.5684 14.3913 55.6384C15.9161 57.9789 17.5072 60.3195 19.1978 62.426C20.0928 63.5294 20.7889 64.6997 21.8165 65.6359C23.0761 66.8062 24.8329 67.5752 24.7335 68.3443L24.634 69.2805C24.634 69.8155 24.7335 70.2501 24.8661 70.9523L27.6505 82.5548C31.562 99.3734 28.9433 93.0539 33.6171 95.7957C34.5784 101.848 33.7497 102.416 33.8823 104.523C35.2414 105.058 43.1306 105.191 44.3239 104.857C43.9261 104.355 44.125 104.556 43.5947 104.121C43.2632 103.887 43.1306 103.82 42.7659 103.586C33.0868 97.434 39.3186 98.1362 37.396 80.883C37.0645 77.9405 36.3021 74.7975 36.6004 71.8885C39.6832 71.4204 40.6113 70.317 43.0643 71.9888C43.9261 72.5907 44.9869 73.6941 45.8156 72.2563C46.6774 70.7517 45.7161 70.9857 44.8874 69.548C46.6774 68.5449 46.6443 69.9492 49.0972 67.9765C58.0803 60.7207 48.2685 56.5746 53.9037 55.4378Z" fill="#61BCD1"/>
<path fill-rule="evenodd" clip-rule="evenodd" d="M111.747 42.3976L111.813 43.0998L120.663 39.9567C121.824 41.7958 121.094 41.3276 122.951 42.431C121.757 45.2732 122.221 43.2001 122.619 46.5772C123.448 53.8663 124.475 50.2218 125.901 59.6509C126.63 64.5326 128.586 62.9611 126.398 67.5753C124.641 71.3202 124.906 72.0558 124.475 76.5363C124.144 79.6793 123.382 82.6886 122.354 85.4639C120.232 91.2818 121.857 91.1481 118.277 97.4341C117.448 98.9388 114.995 101.848 116.487 105.86C117.183 107.666 117.912 107.432 120 107.131C120.663 103.72 120.498 102.383 122.884 100.276C125.072 98.3369 130.773 83.0899 131.635 80.3481C131.901 80.8162 131.735 80.1809 132.033 81.4849L132.166 84.1598C132.133 85.3636 132.166 86.5338 132.166 87.7375L132.133 102.884C131.867 104.088 131.337 104.489 130.21 105.024C128.155 105.96 128.884 104.89 127.956 106.562C128.884 107.499 127.127 106.663 129.216 107.365C130.376 107.766 132.066 107.432 133.193 107.097C139.591 105.258 137.834 106.161 136.873 101.38C137.072 99.3735 137.668 99.9419 137.933 97.6013C138.066 96.1301 137.602 95.3276 138 94.2577C138.431 86.4001 139.425 77.9072 140.718 70.3506C141.116 67.9431 141.779 67.2075 141.149 64.8335L136.21 50.5561C136.641 50.1549 136.309 50.4224 137.038 49.9877L139.259 48.8174C139.094 44.5375 137.801 30.093 130.972 34.0719C130.939 34.1054 129.912 34.7406 129.912 34.7741C129.315 35.2422 129.448 34.9747 129.083 35.6434C127.757 33.9716 124.973 32.2998 122.652 32.8348C119.868 33.4701 119.238 36.2787 120.332 39.0205L111.747 42.3976Z" fill="#638FBE"/>
<path fill-rule="evenodd" clip-rule="evenodd" d="M262.006 61.7239C260.747 60.2193 259.918 59.7177 259.62 57.1431C259.984 55.3375 260.316 54.7691 259.719 53.1976C258.161 52.6961 257.366 53.5654 256.106 54.1338C256.371 56.14 257.299 57.2769 257.167 58.9487C256.073 59.3834 254.183 59.9184 253.322 59.9852C251.432 60.1524 251.432 59.2162 249.543 59.9852C248.217 62.2589 249.543 62.8608 249.808 64.9338C250.173 67.9097 249.476 67.8428 250.802 70.2837L253.255 70.0831C254.117 65.3351 252.659 63.3623 257.797 62.2589C260.647 68.9462 262.404 68.2775 264.327 69.1468C265.52 69.6818 264.327 69.0131 265.089 69.6818C268.57 72.7245 267.94 70.5512 270.525 72.758C272.581 74.4967 273.243 77.9072 271.221 81.0837C268.967 84.6614 270.061 85.2967 267.012 88.4397C259.222 96.4645 259.056 93.4552 253.023 97.6348C246.758 101.948 249.94 95.8292 245.698 99.2063C242.946 101.413 239.764 101.212 240.593 105.626C243.311 105.726 252.791 102.082 255.907 100.978C261.41 99.0391 265.387 98.1363 269.597 95.0936C271.586 93.6558 273.575 92.218 275.663 90.914C279.707 88.4063 279.575 89.5097 280.635 89.8106C283.287 90.5797 287.994 90.5128 290.547 91.9505C291.607 92.5858 294.425 95.9964 294.856 97.8688C295.221 96.9326 295.85 95.8292 296.414 94.8595C297.342 93.3214 297.176 93.3883 298.403 92.4855C294.723 86.6341 293.265 85.0626 285.707 82.0868C285.144 81.8527 285.044 81.8862 284.514 81.5184C281.762 79.6793 285.144 72.3902 285.276 69.2137C288.293 68.5115 289.121 66.5053 292.867 67.1406L295.353 68.2106C286.569 67.5419 289.42 73.7611 296.049 73.4936C303.143 73.2261 306.491 62.727 280.238 61.2558C280.271 59.5171 280.238 57.6112 281.199 56.5747C281.497 56.2738 281.464 56.3741 281.895 55.9728L282.425 55.5047C282.326 55.4044 282.193 55.3375 282.127 55.3041L280.635 54.5351C279.376 53.7326 278.514 50.7567 274.801 52.8967C269.995 55.605 273.807 60.2193 274.172 61.7574C272.415 63.7301 272.249 63.0948 269.465 63.5295C266.448 63.9976 263.763 67.0403 262.006 61.7239Z" fill="#F16D23"/>
<path fill-rule="evenodd" clip-rule="evenodd" d="M215.036 54.1672C216.03 55.1703 216.925 56.3406 218.218 57.0428C219.743 57.8453 220.671 57.8118 222.395 59.0824C222.527 61.0552 222.593 60.1858 221.964 61.5901C221.632 63.5295 220.903 64.2985 220.704 67.2075C220.041 76.436 225.113 72.6242 225.312 81.9196C225.411 87.6038 225.146 88.9412 226.803 93.9901C229.19 101.346 226.671 100.443 227.798 105.091C235.985 106.964 230.45 100.544 230.383 95.8292C230.317 87.8378 231.179 93.8564 233.864 82.7555C234.295 80.8496 234.792 81.2843 235.72 80.2143C235.952 79.9468 235.985 79.9802 236.25 79.3784L238.14 70.6514C238.405 68.1103 237.477 66.2378 237.145 63.797C236.814 61.7239 237.278 62.3592 237.377 60.4199C237.444 59.0824 237.079 58.1127 237.013 56.8422C237.974 55.9394 237.842 56.4075 238.637 55.1035L243.344 57.1097L244.736 55.6384C244.239 54.6353 244.338 54.2007 243.775 53.0973C242.913 51.3586 242.979 52.5288 242.781 50.2886C240.957 47.8143 240.924 44.3369 239.532 42.6651C238.007 40.8261 234.063 40.5251 231.809 39.6892C231.411 35.4093 233.035 38.6527 232.472 34.6069C232.173 32.5672 232.67 31.3301 231.908 30.1932C230.118 27.4514 226.671 28.0533 224.615 30.4273C224.45 31.397 224.45 34.8744 224.615 35.7103C224.98 37.449 225.643 36.6465 226.008 39.9233C220.671 40.9932 220.24 42.431 216.958 45.1059C215.765 46.109 213.909 46.8112 213.942 49.1852C213.942 51.0911 215.367 52.9635 215.036 54.1672Z" fill="#8BBA3E"/>
<path fill-rule="evenodd" clip-rule="evenodd" d="M56.0251 50.2551C52.644 50.322 53.3402 52.4954 53.9037 55.4378C54.5003 56.7418 55.5611 58.8149 56.5224 61.0551C59.9697 69.2136 62.0581 61.9245 62.489 61.4898C64.743 62.3926 65.3397 66.5721 66.4336 67.408C61.9918 68.5783 61.1962 69.3474 57.7157 71.2867C56.4229 71.9889 51.2518 73.4601 52.8098 78.1746C53.1081 79.1108 57.5168 84.1598 58.2792 84.8285C61.4614 87.5034 61.5277 87.0687 63.3508 91.7833C60.8979 96.2303 58.9753 94.4582 59.0084 97.6012C61.3288 98.6378 62.8205 97.0328 64.2458 96.2638C66.8977 94.826 72.3671 94.826 66.7651 89.2755C63.8149 86.3666 60.6327 80.4817 59.7708 77.439C61.3951 76.4025 69.0854 74.9313 71.2732 74.9313L68.3562 76.1016C68.4556 78.2415 68.2567 79.3115 69.1517 81.0167C70.345 83.3907 69.6489 82.5548 70.2456 85.2966C71.0743 89.0081 72.8974 89.1752 75.1183 91.1146C77.0409 92.7864 78.2342 94.6254 80.2894 96.665C86.9521 103.185 85.4273 103.219 81.1844 105.994C85.6925 107.465 87.2836 106.027 90.8968 103.854C91.0956 100.811 89.6371 100.477 88.0129 99.1728C86.3555 97.8353 85.7257 97.5009 84.3998 95.6619C80.19 89.7437 84.3998 93.3214 78.2342 87.5368C75.483 84.9957 76.842 80.5486 76.8089 75.6334C76.7757 70.5845 80.3226 68.4111 75.715 64.8C78.8972 63.195 82.0131 54.3344 81.549 53.1641C80.1568 51.7263 78.2011 49.5195 76.1128 48.483C74.7869 47.8142 73.8919 47.9146 72.7317 46.9449C71.3726 45.8081 72.0024 45.7077 69.9804 44.8718C69.8147 42.7319 70.3119 40.826 69.218 39.2879C67.6269 37.0142 62.0912 34.5065 58.5112 42.4978L60.3675 43.4006C60.2681 43.8687 60.1686 44.27 60.2018 44.7381C60.4338 47.7139 61.0636 44.8384 61.1962 48.2824L61.0305 50.857C60.6658 52.3616 60.3344 53.4316 59.572 54.8025C58.5775 56.5746 58.6107 58.5139 58.5775 58.2464C58.5775 58.1796 58.5444 58.4471 58.5112 58.5139C55.2627 55.4043 57.4836 53.9331 56.0251 50.2551Z" fill="#03AAD4"/>
<path fill-rule="evenodd" clip-rule="evenodd" d="M373.483 80.9833C374.345 81.8861 375.074 82.1201 375.903 82.8557C377.096 83.9257 376.93 84.026 378.323 84.9622C380.775 83.5914 380.577 83.5245 383.527 83.257C388.897 82.7554 389.46 78.2749 393.272 81.4848C394.532 82.5548 395.758 83.2904 396.653 84.7951C401.758 84.9957 400.2 84.6948 403.482 87.3362C406.465 89.7771 405.769 89.1753 406.962 93.1876C407.725 95.7622 409.017 97.4006 409.979 99.574C411.835 103.754 410.741 102.817 411.172 106.863C414.785 107.9 418.498 108.936 421.083 106.462C419.658 102.282 416.144 107.432 413.128 95.9629C411.57 89.9109 410.907 87.3697 407.99 82.7889C401.99 73.3598 401.99 78.1746 400.697 71.3201C399.703 66.1709 400.731 68.8124 401.327 63.9641C401.824 60.1523 401.725 59.7845 402.653 56.2737C406.134 56.374 414.354 53.3313 415.548 52.3951L420.122 48.5164C421.083 47.5802 420.884 46.9115 422.078 46.0087C422.807 45.4737 422.873 45.6409 423.536 45.2396C427.116 43.0328 423.536 37.5492 418.498 39.2545C417.669 41.7288 417.702 41.8291 418.299 44.4037C416.409 45.8415 416.575 46.5771 414.686 47.948C412.067 49.8539 408.122 51.3251 404.775 50.5895C401.924 49.9542 402.023 50.4892 399.206 50.5561C400.134 47.1121 400.863 41.7288 395.559 42.0632C388.731 42.4978 394.035 47.6805 391.88 50.4557C389.792 53.1641 385.714 50.2886 384.654 57.0093C383.958 61.3561 380.146 63.496 383.228 67.4081C385.681 67.5752 386.742 65.9369 388.3 65.0341C387.737 70.8855 385.383 71.5208 381.936 74.0619C380.345 75.2322 378.952 76.3022 377.361 77.4725C375.671 78.7431 375.041 79.9133 374.477 80.4149C373.715 81.1505 374.477 80.8161 373.483 80.9833Z" fill="#DB56FD"/>
<path fill-rule="evenodd" clip-rule="evenodd" d="M138 94.2577C137.602 95.3276 138.066 96.1301 137.934 97.6013C137.669 99.9419 137.072 99.3734 136.873 101.38L138.066 100.142C138.696 101.045 141.613 103.821 142.873 104.456C144.961 103.419 147.116 99.4069 148.574 97.5344C154.044 90.7468 155.171 85.0292 159.115 83.9592C162.53 83.023 161.502 85.1964 163.922 83.4911C165.579 82.3543 165.016 81.9196 167.469 80.9499C167.8 83.558 169.424 85.1295 170.419 87.2694C171.811 90.3456 171.413 90.914 175.358 91.2484C180.098 91.683 185.866 93.2211 189.214 95.7289C188.982 93.9567 188.617 90.68 187.589 89.6434L187.324 90.2787C179.468 84.1264 177.148 88.9078 175.756 85.0626L174.43 76.1016C174.761 62.8273 171.745 68.5115 171.612 55.4713C171.612 53.9332 171.778 51.6261 171.214 50.2552C170.584 48.8174 169.325 48.4831 168.33 47.4465C170.054 43.6013 169.988 46.0087 171.247 44.3035C169.822 43.4676 169.855 44.1363 168.861 43.1332C167.866 42.1635 168.761 42.197 167.27 41.1605C162.032 37.4156 158.519 46.8112 163.358 51.8267C152.154 57.1097 146.585 49.6199 146.585 48.784C148.243 43.6013 153.381 47.5134 157.325 46.41C161.867 45.1394 160.275 40.0236 157.259 38.2515C151.326 34.7741 149.569 43.4676 149.569 43.4676C147.845 47.3796 144.431 44.0694 142.442 49.319C145.061 50.7233 142.939 48.6168 145.757 52.0942C146.751 53.2979 147.646 54.0669 148.74 54.9363C154.64 59.6509 151.458 56.675 157.491 57.3103C162.463 57.8453 161.767 61.4564 162.43 64.4323C164.784 75.4663 163.226 70.9524 158.154 75.8341C156.961 76.971 156.53 77.6397 155.138 78.6094C152.85 80.2143 153.778 79.579 152.552 82.2874C151.889 83.7586 151.127 84.8954 150.431 85.9988C145.657 93.5221 144.597 98.2366 138.166 96.1635L138 94.2577Z" fill="#7CBBE6"/>
<path fill-rule="evenodd" clip-rule="evenodd" d="M242.78 50.2886C242.979 52.5289 242.913 51.3586 243.775 53.0973C244.338 54.2007 244.239 54.6354 244.736 55.6385C250.769 57.444 250.935 52.6626 255.476 50.857C259.089 49.4527 255.973 51.8267 260.349 46.2762L262.006 56.1066L259.62 57.1431C259.918 59.7177 260.747 60.2193 262.006 61.7239C264.857 60.6539 264.89 61.3895 267.144 59.5171C267.343 56.909 266.216 57.4106 267.177 55.0366C268.072 52.8298 268.536 53.9332 268.603 50.5895C268.735 45.3066 264.956 38.8868 265.354 31.2967C265.619 26.5152 263.929 26.3481 265.686 21.2991C268.603 21.132 276.227 20.3295 278.68 19.6608C280.072 19.2595 282.823 17.9889 284.05 18.0224L287.862 19.3598C289.022 19.8614 287.497 19.6608 289.221 19.9282C289.585 16.1499 287.663 15.849 284.083 15.849C273.376 15.849 275.232 17.6211 266.315 16.8521C261.84 16.4843 261.774 18.8917 258.028 18.1561C259.752 12.8731 258.327 15.1803 256.835 11.8032C256.272 10.5995 256.968 10.8335 256.073 9.39574C254.349 9.39574 252.228 10.8001 250.902 11.7029C249.675 18.5908 252.493 16.618 254.051 19.6608C251.432 22.5697 247.487 21.366 243.709 21.3326C244.007 14.8125 245.697 14.1437 248.813 12.3716L247.189 11.7029V8.02484C246.659 7.79078 247.023 8.05828 246.493 7.65704L245.432 6.68738C240.99 9.93072 245.598 10.9338 242.946 14.9128C241.322 17.3202 239.432 19.293 239.035 22.8038C240.725 25.345 244.604 26.3481 248.15 26.7827C250.868 27.1171 250.537 27.184 252.029 29.5914C255.145 34.7072 253.785 40.8595 250.636 45.0391C247.255 49.5196 251.167 47.3462 245.465 49.6868C244.371 50.1214 243.642 50.1883 242.78 50.2886Z" fill="#F4C31C"/>
<path fill-rule="evenodd" clip-rule="evenodd" d="M201.511 99.8416C202.075 103.018 205.257 105.058 209.533 104.222C212.483 103.653 214.671 100.51 213.743 96.2304C212.251 89.3091 199.754 90.1784 201.511 99.8416Z" fill="#AFD4EA"/>
<path fill-rule="evenodd" clip-rule="evenodd" d="M265.487 2.00624C265.222 2.10655 263.995 2.03968 262.934 4.27993C261.111 8.09169 264.26 12.405 269.1 10.9338C274.37 9.36228 272.282 -0.635245 265.487 2.00624Z" fill="#EFD78E"/>
</g>
<defs>
<clipPath id="clip0_1_669">
<rect width="425" height="108" fill="white"/>
</clipPath>
</defs>
</svg>
